<?xml version="1.0" encoding="utf-8"?>
<!-- Generator: Adobe Illustrator 19.0.0, SVG Export Plug-In . SVG Version: 6.00 Build 0)  -->
<svg version="1.1" id="Layer_1" xmlns="http://www.w3.org/2000/svg" xmlns:xlink="http://www.w3.org/1999/xlink" x="0px" y="0px"
	 viewBox="15 -60 480 680" style="enable-background:new 15 -60 480 680;" xml:space="preserve">
<style type="text/css">
	.st0{fill:#FF6D47;}
	.st1{fill:#231F20;}
	.st2{fill:#009597;}
	.st3{fill:#FFFFFF;}
	.st4{fill:none;stroke:#175356;stroke-width:3;stroke-miterlimit:10;}
	.st5{fill:#FFFFFF;stroke:#0C473E;stroke-width:2;stroke-miterlimit:10;}
	.st6{fill:none;stroke:#0C473E;stroke-width:2;stroke-miterlimit:10;}
	.st7{clip-path:url(#SVGID_2_);}
	.st8{clip-path:url(#SVGID_4_);fill:#EFB32E;}
	.st9{clip-path:url(#SVGID_6_);}
	.st10{clip-path:url(#SVGID_8_);fill:#2A7BBE;}
	.st11{clip-path:url(#SVGID_10_);}
	.st12{clip-path:url(#SVGID_12_);fill:#EFB32E;}
	.st13{clip-path:url(#SVGID_14_);}
	.st14{clip-path:url(#SVGID_16_);fill:#EFB32E;}
	.st15{clip-path:url(#SVGID_18_);}
	.st16{clip-path:url(#SVGID_20_);fill:#EFB32E;}
	.st17{clip-path:url(#SVGID_22_);}
	.st18{clip-path:url(#SVGID_24_);fill:#2A7BBE;}
	.st19{clip-path:url(#SVGID_26_);}
	.st20{clip-path:url(#SVGID_28_);fill:#2A7BBE;}
	.st21{clip-path:url(#SVGID_30_);}
	.st22{clip-path:url(#SVGID_32_);fill:#2A7BBE;}
	.st23{clip-path:url(#SVGID_34_);}
	.st24{clip-path:url(#SVGID_36_);fill:#2A7BBE;}
	.st25{clip-path:url(#SVGID_38_);}
	.st26{clip-path:url(#SVGID_40_);fill:#EFB32E;}
	.st27{clip-path:url(#SVGID_42_);}
	.st28{clip-path:url(#SVGID_44_);fill:#EFB32E;}
	.st29{clip-path:url(#SVGID_46_);}
	.st30{clip-path:url(#SVGID_48_);fill:#2A7BBE;}
	.st31{clip-path:url(#SVGID_50_);}
	.st32{clip-path:url(#SVGID_52_);fill:#2A7BBE;}
	.st33{clip-path:url(#SVGID_54_);}
	.st34{clip-path:url(#SVGID_56_);fill:#2A7BBE;}
	.st35{clip-path:url(#SVGID_58_);}
	.st36{clip-path:url(#SVGID_60_);fill:#EFB32E;}
	.st37{clip-path:url(#SVGID_62_);}
	.st38{clip-path:url(#SVGID_64_);fill:#2A7BBE;}
	.st39{clip-path:url(#SVGID_66_);}
	.st40{clip-path:url(#SVGID_68_);fill:#EFB32E;}
	.st41{clip-path:url(#SVGID_70_);}
	.st42{clip-path:url(#SVGID_72_);fill:#EFB32E;}
	.st43{clip-path:url(#SVGID_74_);}
	.st44{clip-path:url(#SVGID_76_);fill:#EFB32E;}
	.st45{clip-path:url(#SVGID_78_);}
	.st46{clip-path:url(#SVGID_80_);fill:#EFB32E;}
	.st47{clip-path:url(#SVGID_82_);}
	.st48{clip-path:url(#SVGID_84_);fill:#EFB32E;}
	.st49{clip-path:url(#SVGID_86_);}
	.st50{clip-path:url(#SVGID_88_);fill:#EFB32E;}
	.st51{clip-path:url(#SVGID_90_);}
	.st52{clip-path:url(#SVGID_92_);fill:#2A7BBE;}
	.st53{clip-path:url(#SVGID_94_);}
	.st54{clip-path:url(#SVGID_96_);fill:#2A7BBE;}
	.st55{clip-path:url(#SVGID_98_);}
	.st56{clip-path:url(#SVGID_100_);fill:#2A7BBE;}
	.st57{clip-path:url(#SVGID_102_);}
	.st58{clip-path:url(#SVGID_104_);fill:#2A7BBE;}
	.st59{clip-path:url(#SVGID_106_);}
	.st60{clip-path:url(#SVGID_108_);fill:#2A7BBE;}
	.st61{clip-path:url(#SVGID_110_);}
	.st62{clip-path:url(#SVGID_112_);fill:#2A7BBE;}
	.st63{fill:#FFFFFF;stroke:url(#SVGID_113_);stroke-width:2;stroke-miterlimit:10;}
</style>
<g id="XMLID_1_">
	<path id="XMLID_58_" class="st0" d="M447,132.8c-0.6-0.8-1.3-1.6-1.9-2.3c-3.3-3.8-7.2-6.9-11.5-9.3c-1.7-1-3.5-1.9-5.4-2.7
		c0.8,3.1,4.6,15,12.5,23.3c1.6,1.7,3.3,3.1,5,4.3c3.1,2.1,6.4,3.4,9.9,3.9c-0.4-1.5-1.7-6.1-4.7-11.3
		C449.8,136.6,448.5,134.6,447,132.8L447,132.8z"/>
	<path id="XMLID_57_" class="st1" d="M446.9,133.1c0.1,0.1,0.2,0.3,0.3,0.4c0.4,0.4,0.6,0.9,0.9,1.4c0.1,0.1,0.1,0.1,0.2,0.2
		c0.2,0.4,0.5,0.8,0.8,1.2c0.1,0.1,0.2,0.3,0.3,0.5c0.2,0.2,0.3,0.5,0.5,0.7l8.5-12l-4-4.6l-8,11.3
		C446.4,132.5,446.7,132.8,446.9,133.1z"/>
	<path id="XMLID_56_" class="st1" d="M442.5,145.5c-0.3-0.3-0.7-0.5-1-0.8c-0.1-0.1-0.2-0.1-0.2-0.2c-0.4-0.4-0.8-0.7-1.2-1.1
		c-0.1-0.1-0.2-0.2-0.4-0.4c-0.2-0.2-0.5-0.4-0.7-0.6l-7.3,10.4l4,4.6l7.8-11c-0.2-0.1-0.4-0.3-0.6-0.4
		C442.8,145.7,442.7,145.6,442.5,145.5z"/>
	<path id="XMLID_55_" class="st0" d="M420,150.7c-0.5-0.3-1.1-0.7-1.6-1c-0.2-0.1-0.4-0.2-0.5-0.4c-0.7-0.5-1.4-1-2.2-1.5
		c-0.2-0.1-0.5-0.4-0.7-0.5c-0.5-0.4-1-0.7-1.5-1c-0.3-0.2-0.6-0.4-0.9-0.6c-0.4-0.4-0.8-0.6-1.3-1c-0.3-0.2-0.7-0.5-1-0.8
		c-0.4-0.4-0.8-0.6-1.2-1c-0.3-0.3-0.7-0.6-1-0.8c-0.4-0.4-0.8-0.6-1.2-1c-0.4-0.3-0.7-0.6-1-0.9c-0.3-0.3-0.6-0.5-0.9-0.8l0,21.3
		c0,1.5,0.7,3.6,1.5,4.7l18.6,25.4c0.3,0.4,0.6,0.6,0.8,0.6c0.4,0,0.6-0.4,0.8-1.1l2.4-11.8c0.3-1.4,0.1-3.8-0.4-5.1l-6-15.2
		c-0.6-1.5-1-4.1-1-5.7l0-0.6c-0.4-0.2-0.8-0.5-1.2-0.8C420.6,151,420.3,150.9,420,150.7z"/>
	<polygon id="XMLID_54_" class="st1" points="400.6,99.1 401.2,90.3 416.1,107.4 419.1,103.2 400.5,81.9 397.7,85.7 396.9,98.7 	"/>
	<polygon id="XMLID_53_" class="st0" points="355.2,34.7 368.6,85.1 395.9,46.5 	"/>
	<path id="XMLID_52_" class="st0" d="M462.8,86.5c-0.9-0.9-2.7-1.6-3.9-1.4l-16.6,2.2c0.2,0.4,0.5,0.7,0.7,1
		c0.2,0.4,0.5,0.7,0.8,1.2c0.3,0.4,0.6,1,0.9,1.4c0.2,0.4,0.5,0.7,0.7,1.1c0.3,0.4,0.6,1,0.9,1.4c0.2,0.4,0.5,0.7,0.6,1.1
		c0.3,0.5,0.6,1,0.9,1.6c0.2,0.4,0.4,0.7,0.6,1c0.4,0.6,0.6,1.2,1,1.8c0.2,0.3,0.3,0.5,0.5,0.8c0.5,0.8,0.9,1.7,1.3,2.5
		c0.1,0.2,0.2,0.4,0.3,0.6c0.3,0.7,0.6,1.3,1,1.9c0.2,0.3,0.3,0.7,0.5,1c0.2,0.4,0.5,1,0.7,1.4l0.5-0.1c1.3-0.3,3.3,0,4.5,0.6
		l12.7,6c1.1,0.5,3,0.5,4,0l9-4.4c0.2-0.1,0.4-0.3,0.6-0.4c0.1-0.2,0.2-0.4,0.2-0.6c-0.1-0.3-0.2-0.7-0.5-1L462.8,86.5z"/>
	<path id="XMLID_49_" class="st2" d="M438.5,82.8c-3.5-5.2-7.4-10.2-11.5-14.9c-10.3-11.9-21.5-21.2-32.3-26.9l-0.5,0.7l-28.8,40.7
		L365,83c5.6,13,14.1,26.2,24.4,38.1c4.1,4.7,8.4,9.1,12.8,13.1c5.8,5.2,11.7,9.5,17.4,12.7c2.8,1.6,5.6,3,8.2,4l1.6-2.2l7.7-11
		c-0.1-0.1-0.2-0.2-0.3-0.3c-0.1-0.1-0.3-0.3-0.4-0.5c-0.1-0.1-0.3-0.3-0.4-0.4s-0.3-0.3-0.4-0.5c-0.1-0.1-0.2-0.3-0.4-0.4
		c-0.1-0.1-0.3-0.4-0.4-0.5c-0.1-0.1-0.2-0.3-0.4-0.5c-0.1-0.1-0.2-0.4-0.4-0.5c-0.1-0.1-0.2-0.3-0.4-0.5c-0.1-0.1-0.2-0.4-0.4-0.5
		c-0.1-0.1-0.2-0.3-0.4-0.5c-0.1-0.1-0.2-0.4-0.4-0.5c-0.1-0.1-0.2-0.3-0.4-0.5c-0.1-0.1-0.2-0.4-0.4-0.5c-0.1-0.1-0.2-0.3-0.3-0.5
		c-0.1-0.1-0.2-0.4-0.3-0.5c-0.1-0.1-0.2-0.3-0.3-0.5c-0.1-0.1-0.2-0.4-0.3-0.5c-0.1-0.1-0.2-0.3-0.3-0.5c-0.1-0.1-0.2-0.4-0.3-0.5
		s-0.2-0.3-0.2-0.4c-0.1-0.1-0.2-0.4-0.3-0.5c-0.1-0.2-0.2-0.3-0.2-0.4c-0.1-0.1-0.2-0.4-0.2-0.5c-0.1-0.2-0.2-0.3-0.2-0.4
		c-0.1-0.2-0.2-0.4-0.2-0.5c-0.1-0.2-0.2-0.3-0.2-0.4s-0.2-0.3-0.2-0.5c-0.1-0.2-0.1-0.3-0.2-0.4c-0.1-0.2-0.2-0.3-0.2-0.5
		c-0.1-0.2-0.1-0.3-0.2-0.5c-0.1-0.2-0.1-0.3-0.2-0.5c-0.1-0.2-0.1-0.3-0.2-0.5c-0.1-0.2-0.1-0.3-0.2-0.5c-0.1-0.2-0.1-0.3-0.2-0.4
		c-0.1-0.2-0.1-0.3-0.2-0.5c-0.1-0.2-0.1-0.2-0.2-0.4s-0.1-0.3-0.2-0.5c-0.1-0.2-0.1-0.2-0.1-0.4c-0.1-0.2-0.1-0.3-0.2-0.5
		c-0.1-0.2-0.1-0.2-0.1-0.4c-0.1-0.2-0.1-0.3-0.2-0.4c-0.1-0.1-0.1-0.2-0.1-0.3c-0.1-0.2-0.1-0.3-0.1-0.4c-0.1-0.1-0.1-0.2-0.1-0.3
		s-0.1-0.2-0.1-0.4c-0.1-0.1-0.1-0.2-0.1-0.3c-0.1-0.1-0.1-0.2-0.1-0.3c0-0.1-0.1-0.2-0.1-0.2c-0.1-0.1-0.1-0.2-0.1-0.3
		c0-0.1-0.1-0.2-0.1-0.2c0-0.1-0.1-0.2-0.1-0.2c0-0.1-0.1-0.2-0.1-0.2c0-0.1-0.1-0.2-0.1-0.2c0-0.1-0.1-0.2-0.1-0.2s0-0.1-0.1-0.2
		c0-0.1-0.1-0.2-0.1-0.2l0-0.1c0-0.1,0-0.1,0-0.1c0-0.1,0-0.1-0.1-0.1c-0.1-0.2-0.1-0.2-0.1-0.2l-0.2-0.8l0.6,0.3
		c0.5,0.2,1,0.4,1.4,0.6c0.2,0.1,0.3,0.1,0.5,0.2c0.3,0.1,0.7,0.3,1,0.5c0.2,0.1,0.4,0.2,0.5,0.3c0.3,0.1,0.6,0.3,0.8,0.4
		c0.2,0.1,0.4,0.2,0.5,0.3c0.3,0.1,0.5,0.3,0.8,0.4c0.2,0.1,0.4,0.2,0.5,0.3c0.2,0.1,0.5,0.3,0.8,0.5c0.2,0.1,0.4,0.2,0.5,0.3
		c0.2,0.1,0.5,0.4,0.8,0.5c0.2,0.1,0.4,0.3,0.5,0.3c0.2,0.1,0.5,0.4,0.7,0.5c0.2,0.1,0.4,0.3,0.5,0.4c0.2,0.1,0.5,0.4,0.7,0.5
		c0.2,0.1,0.4,0.3,0.5,0.4c0.2,0.1,0.5,0.4,0.7,0.5c0.2,0.1,0.4,0.3,0.5,0.4c0.2,0.2,0.4,0.4,0.7,0.6c0.2,0.1,0.4,0.3,0.5,0.4
		c0.2,0.2,0.4,0.4,0.7,0.6c0.2,0.1,0.4,0.3,0.5,0.5c0.2,0.2,0.4,0.4,0.6,0.6c0.2,0.1,0.4,0.4,0.5,0.5c0.2,0.2,0.4,0.4,0.6,0.6
		c0.2,0.1,0.3,0.4,0.5,0.5c0.2,0.2,0.4,0.4,0.6,0.7c0.2,0.1,0.3,0.4,0.5,0.5c0.2,0.2,0.4,0.4,0.5,0.7c0.2,0.2,0.3,0.4,0.5,0.6
		c0.1,0.1,0.3,0.3,0.4,0.5l8.4-11.9l1.6-2.2c-1.1-3.2-2.5-6.5-4-9.9c-0.4-0.9-0.8-1.7-1.2-2.6C446.2,94.9,442.6,88.8,438.5,82.8z
		 M420.3,108.4c-6.9,9.8-19,10.3-26.9,1.3c-7.9-9.1-8.8-24.4-1.8-34.2c6.9-9.8,19-10.3,26.9-1.3C426.3,83.3,427.2,98.6,420.3,108.4z
		"/>
	<path id="XMLID_46_" class="st3" d="M394.9,80.3c-6.7,9.5-5.9,24.2,1.8,33c7.6,8.8,19.3,8.2,26-1.2c6.7-9.5,5.9-24.2-1.8-33
		C413.2,70.3,401.6,70.9,394.9,80.3z M421.4,103.5l-3.8,5.5l-14.4-16.5l-0.5,7.9l-5-0.7l0.9-14.1l3.3-4.6L421.4,103.5L421.4,103.5z"
		/>
	<path id="XMLID_43_" class="st3" d="M396.3,99.4l5,0.7l0.5-7.9l14.4,16.5l3.8-5.5l-19.6-22.5l-3.3,4.6L396.3,99.4z M400.5,81.9
		l18.6,21.4l-3,4.2l-14.9-17.1l-0.5,8.8l-3.7-0.5l0.8-13L400.5,81.9L400.5,81.9z"/>
	<path id="XMLID_40_" class="st3" d="M393,79.5c-6.9,9.8-6.1,25.1,1.8,34.2s20,8.5,26.9-1.3c6.9-9.8,6.1-25.1-1.8-34.2
		C412,69.1,399.9,69.7,393,79.5z M421.2,111.9c-6.7,9.5-18.3,10-26,1.2c-7.6-8.8-8.5-23.6-1.8-33c6.7-9.5,18.3-10,26-1.2
		C427.1,87.7,427.9,102.4,421.2,111.9z"/>
	<path id="XMLID_31_" class="st3" d="M483.6,106.5l-21.7-21c-1.1-1-3-1.7-4.3-1.6l-17.1,2.2C436.8,81,433,76,428.9,71.4
		c-10.5-12-21.8-21.4-32.7-27.2L396,44l-1.1,1.5l-42.3-12.2l14,52.2l-1.1,1.5l0.1,0.2c5.6,13.2,14.2,26.5,24.6,38.6
		c4.1,4.7,8.3,9.1,12.8,13l0,21.9c0,1.7,0.8,4.1,1.7,5.3l18.6,25.4c0.4,0.6,0.9,0.9,1.3,0.9c0.4,0,0.7-0.2,0.9-0.5
		c0.2-0.3,0.3-0.7,0.5-1.1l2.4-11.8c0.3-1.6,0.1-4.1-0.5-5.7l-6-15.5c-0.5-1.4-0.9-3.8-0.9-5.3l0-0.3c2.8,1.6,5.5,2.9,8,3.9l0.2,0.1
		l1.8-2.6l4.5,5.2l8.4-11.9c3.2,2.1,6.8,3.5,10.4,4l0.5,0l-0.1-0.5c-0.1-0.2-1.1-5.4-4.8-11.9l9.2-12.8l-4.5-5.2l1.8-2.6l-0.1-0.2
		c-1.1-3.1-2.4-6.4-3.9-9.7l0.2,0c1.2-0.2,3.1,0.1,4.2,0.6l12.7,6c1.3,0.6,3.3,0.6,4.5,0l9-4.4c0.4-0.2,0.6-0.4,0.8-0.7l0,0
		c0.3-0.3,0.4-0.8,0.3-1.3C484.3,107.4,484,106.9,483.6,106.5z M353.7,34.4l40.7,11.8l-27.3,38.6L353.7,34.4z M420.6,152.3
		c0,1.6,0.4,4.2,1,5.7l6,15.5c0.5,1.4,0.7,3.7,0.4,5.1l-2.4,11.8c-0.1,0.6-0.4,1-0.8,1.1c-0.2,0-0.5-0.2-0.8-0.6l-18.6-25.4
		c-0.8-1.1-1.5-3.2-1.5-4.7l0-21.3c0.3,0.3,0.6,0.5,0.9,0.8c0.4,0.3,0.7,0.6,1,0.9c0.4,0.4,0.8,0.6,1.2,1c0.3,0.3,0.7,0.6,1,0.8
		c0.4,0.4,0.8,0.6,1.2,1c0.3,0.3,0.7,0.5,1,0.8c0.4,0.4,0.8,0.6,1.3,1c0.3,0.2,0.6,0.4,0.9,0.6c0.5,0.4,1,0.7,1.5,1
		c0.2,0.1,0.5,0.4,0.7,0.5c0.7,0.5,1.4,1,2.2,1.5c0.2,0.1,0.4,0.2,0.5,0.4c0.5,0.3,1.1,0.7,1.6,1c0.3,0.1,0.5,0.3,0.8,0.5
		c0.4,0.3,0.8,0.5,1.2,0.8L420.6,152.3z M435.7,157.4l-4-4.6l7.3-10.4c0.2,0.2,0.5,0.4,0.7,0.6c0.1,0.1,0.2,0.2,0.4,0.4
		c0.4,0.4,0.8,0.7,1.2,1.1c0.1,0.1,0.2,0.1,0.2,0.2c0.3,0.3,0.7,0.6,1,0.8c0.1,0.1,0.3,0.2,0.4,0.4c0.2,0.1,0.4,0.3,0.6,0.4
		L435.7,157.4L435.7,157.4z M449.5,138.4c3,5.3,4.3,9.8,4.7,11.3c-3.5-0.6-6.9-1.8-9.9-3.9c-1.7-1.2-3.5-2.6-5-4.3
		c-8-8.3-11.7-20.3-12.5-23.3c1.9,0.8,3.7,1.6,5.4,2.7c4.3,2.4,8.2,5.6,11.5,9.3c0.7,0.7,1.3,1.5,1.9,2.3l0,0
		C447,134.4,448.4,136.3,449.5,138.4z M458.3,125.5l-8.5,12c-0.2-0.2-0.3-0.5-0.5-0.7c-0.1-0.1-0.2-0.3-0.3-0.5
		c-0.2-0.4-0.5-0.8-0.8-1.2c-0.1-0.1-0.1-0.1-0.2-0.2c-0.3-0.4-0.6-1-0.9-1.4c-0.1-0.1-0.2-0.3-0.3-0.4c-0.2-0.3-0.4-0.5-0.6-0.8
		l8-11.3L458.3,125.5L458.3,125.5z M451.8,107.6c1.6,3.4,2.9,6.8,4,9.9l-1.6,2.2l-8.4,11.9c-0.1-0.1-0.3-0.3-0.4-0.5
		c-0.2-0.2-0.3-0.4-0.5-0.6s-0.4-0.4-0.5-0.7c-0.2-0.1-0.3-0.4-0.5-0.5c-0.2-0.2-0.4-0.4-0.6-0.7c-0.2-0.1-0.3-0.4-0.5-0.5
		c-0.2-0.2-0.4-0.4-0.6-0.6c-0.2-0.1-0.4-0.4-0.5-0.5c-0.2-0.2-0.4-0.4-0.6-0.6c-0.2-0.1-0.4-0.3-0.5-0.5c-0.2-0.2-0.4-0.4-0.7-0.6
		c-0.2-0.1-0.4-0.3-0.5-0.4c-0.2-0.2-0.4-0.4-0.7-0.6c-0.2-0.1-0.4-0.3-0.5-0.4c-0.2-0.2-0.5-0.4-0.7-0.5c-0.2-0.1-0.4-0.3-0.5-0.4
		c-0.2-0.1-0.5-0.4-0.7-0.5c-0.2-0.1-0.4-0.3-0.5-0.4c-0.2-0.1-0.5-0.4-0.7-0.5c-0.2-0.1-0.4-0.3-0.5-0.3c-0.2-0.1-0.5-0.4-0.8-0.5
		c-0.2-0.1-0.4-0.2-0.5-0.3c-0.2-0.1-0.5-0.3-0.8-0.5c-0.2-0.1-0.4-0.2-0.5-0.3c-0.2-0.1-0.5-0.3-0.8-0.4c-0.2-0.1-0.4-0.2-0.5-0.3
		c-0.3-0.1-0.5-0.3-0.8-0.4c-0.2-0.1-0.4-0.2-0.5-0.3c-0.3-0.1-0.7-0.3-1-0.5c-0.2-0.1-0.3-0.1-0.5-0.2c-0.5-0.2-1-0.4-1.4-0.6
		l-0.6-0.3l0.2,0.8c0,0,0,0.1,0.1,0.2c0,0,0,0.1,0.1,0.1l0,0.1l0,0.1c0,0.1,0.1,0.2,0.1,0.2c0,0.1,0,0.1,0.1,0.2
		c0,0.1,0.1,0.2,0.1,0.2c0,0.1,0.1,0.2,0.1,0.2s0.1,0.2,0.1,0.2c0,0.1,0.1,0.2,0.1,0.2c0,0.1,0.1,0.2,0.1,0.2c0,0.1,0.1,0.2,0.1,0.3
		c0,0.1,0.1,0.2,0.1,0.2c0.1,0.1,0.1,0.2,0.1,0.3c0.1,0.1,0.1,0.2,0.1,0.3c0.1,0.2,0.1,0.2,0.1,0.4c0.1,0.1,0.1,0.2,0.1,0.3
		c0.1,0.2,0.1,0.2,0.1,0.4c0.1,0.1,0.1,0.2,0.1,0.3c0.1,0.2,0.1,0.3,0.2,0.4c0.1,0.2,0.1,0.2,0.1,0.4s0.1,0.3,0.2,0.5
		c0.1,0.2,0.1,0.2,0.1,0.4c0.1,0.2,0.1,0.3,0.2,0.5c0.1,0.2,0.1,0.2,0.2,0.4s0.1,0.3,0.2,0.5c0.1,0.2,0.1,0.3,0.2,0.4
		c0.1,0.2,0.1,0.3,0.2,0.5c0.1,0.2,0.1,0.3,0.2,0.5c0.1,0.2,0.1,0.3,0.2,0.5c0.1,0.2,0.1,0.3,0.2,0.5c0.1,0.2,0.2,0.3,0.2,0.5
		c0.1,0.2,0.1,0.3,0.2,0.4c0.1,0.2,0.2,0.3,0.2,0.5c0.1,0.2,0.1,0.3,0.2,0.4c0.1,0.2,0.2,0.4,0.2,0.5c0.1,0.2,0.2,0.3,0.2,0.4
		c0.1,0.2,0.2,0.4,0.2,0.5c0.1,0.2,0.2,0.3,0.2,0.4c0.1,0.1,0.2,0.4,0.3,0.5c0.1,0.2,0.2,0.3,0.2,0.4c0.1,0.1,0.2,0.4,0.3,0.5
		c0.1,0.1,0.2,0.3,0.3,0.5c0.1,0.1,0.2,0.4,0.3,0.5c0.1,0.1,0.2,0.3,0.3,0.5c0.1,0.1,0.2,0.4,0.3,0.5c0.1,0.1,0.2,0.3,0.3,0.5
		c0.1,0.1,0.2,0.4,0.4,0.5c0.1,0.1,0.2,0.3,0.4,0.5c0.1,0.1,0.2,0.4,0.4,0.5c0.1,0.1,0.2,0.3,0.4,0.5c0.1,0.1,0.2,0.4,0.4,0.5
		c0.1,0.1,0.2,0.3,0.4,0.5c0.1,0.1,0.2,0.4,0.4,0.5c0.1,0.1,0.2,0.3,0.4,0.5c0.1,0.1,0.2,0.4,0.4,0.5c0.1,0.1,0.2,0.3,0.4,0.4
		c0.1,0.1,0.3,0.3,0.4,0.5c0.1,0.1,0.3,0.3,0.4,0.4c0.1,0.1,0.3,0.3,0.4,0.5c0.1,0.1,0.2,0.2,0.3,0.3l-7.7,11l-1.6,2.2
		c-2.6-1-5.4-2.4-8.2-4c-5.8-3.3-11.6-7.6-17.4-12.7c-4.4-3.9-8.7-8.3-12.8-13.1c-10.3-11.9-18.8-25-24.4-38.1l0.5-0.7L395.7,46
		l0.5-0.7c10.7,5.7,21.9,15,32.3,26.9c4.1,4.7,8,9.7,11.5,14.9c4,6,7.6,12.1,10.6,18.1C451,105.9,451.4,106.8,451.8,107.6z
		 M483.7,108.1c0,0.2,0,0.4-0.2,0.6c-0.1,0.2-0.3,0.3-0.6,0.4l-9,4.4c-1.1,0.5-2.9,0.5-4,0l-12.7-6c-1.2-0.6-3.3-0.9-4.5-0.6
		l-0.5,0.1c-0.2-0.4-0.5-1-0.7-1.4c-0.2-0.3-0.3-0.7-0.5-1c-0.3-0.7-0.6-1.3-1-1.9c-0.1-0.2-0.2-0.4-0.3-0.6
		c-0.5-0.8-0.9-1.7-1.3-2.5c-0.2-0.3-0.3-0.5-0.5-0.8c-0.4-0.6-0.6-1.2-1-1.8c-0.2-0.4-0.4-0.7-0.6-1c-0.3-0.5-0.6-1-0.9-1.6
		c-0.2-0.4-0.5-0.7-0.6-1.1c-0.3-0.4-0.6-1-0.9-1.4c-0.2-0.4-0.5-0.7-0.7-1.1c-0.3-0.4-0.6-1-0.9-1.4c-0.2-0.4-0.5-0.7-0.8-1.2
		c-0.2-0.4-0.5-0.7-0.7-1l16.6-2.2c1.2-0.2,2.9,0.5,3.9,1.4l21.7,21C483.5,107.4,483.7,107.8,483.7,108.1z"/>
</g>
<path class="st4" d="M238.1,486.7H299v-10h-60.9V486.7z M236.4,489.3h64.3v-15.2h-64.3L236.4,489.3L236.4,489.3z"/>
<polygon class="st4" points="232,430.1 250,476.7 253.3,476.7 253.6,474.1 250.9,474.1 233.9,430 "/>
<polygon class="st4" points="234.1,417.3 250.9,373.4 262.8,373.4 263,370.9 250,370.9 232.1,417.1 "/>
<polygon class="st4" points="305,417.3 287.2,370.9 274.1,370.9 274.4,373.4 286.2,373.4 303,417.3 "/>
<polygon class="st4" points="303.1,430.1 286.2,474.1 283.5,474.1 283.8,476.7 287.2,476.7 305.1,430.1 "/>
<path class="st4" d="M274.9,379.5l0.2,2.7c12.7,4.5,22.2,21.4,22.2,41.6c0,16.1-6,30.2-15,37.6l0.2,2.7c9.7-7.6,16.4-22.7,16.4-40.2
	C299.1,402,288.7,383.7,274.9,379.5"/>
<path class="st4" d="M254.7,461.3c-8.9-7.3-15-21.3-15-37.6c0-20.3,9.5-37.2,22.2-41.6l0.2-2.7c-13.8,4.4-24.2,22.5-24.2,44.4
	c0,17.5,6.6,32.6,16.4,40.2L254.7,461.3z"/>
<path class="st4" d="M272.2,365.8l9.7,105.7h-26.6l9.7-105.7H272.2z M273.6,363.4h-10.2l-10.2,110.9h30.5L273.6,363.4z"/>
<rect x="266.8" y="496.8" class="st4" width="3.4" height="25.2"/>
<rect x="312.6" y="496.8" class="st4" width="3.4" height="25.2"/>
<rect x="221.1" y="496.8" class="st4" width="3.4" height="25.2"/>
<rect x="244.8" y="476.7" class="st4" width="1.7" height="10"/>
<rect x="290.5" y="476.7" class="st4" width="1.7" height="10"/>
<rect x="238.1" y="471.7" class="st4" width="16.9" height="5"/>
<rect x="231.3" y="370.9" class="st4" width="20.3" height="2.6"/>
<rect x="282.1" y="471.7" class="st4" width="16.9" height="5"/>
<polygon class="st4" points="223.5,500.4 221.1,496.8 238.1,471.7 240.5,475.2 "/>
<polygon class="st4" points="313.6,500.4 315.9,496.8 299.1,471.7 296.6,475.2 "/>
<path class="st4" d="M302.4,426.3L302.4,426.3c-0.9,0-1.7-1.2-1.7-2.6c0-1.4,0.8-2.6,1.7-2.6c0.9,0,1.7,1.2,1.7,2.6
	C304.1,425.1,303.3,426.3,302.4,426.3"/>
<path class="st4" d="M284.7,489.3l-2,7.6h-28.2l-2-7.6H284.7z M287.2,486.7h-37.3l3.4,12.6h30.5L287.2,486.7z"/>
<path class="st4" d="M273.6,446.5c0.9,0,1.7,1.2,1.7,2.6v15.2c0,1.4-0.8,2.6-1.7,2.6h-10.2c-0.9,0-1.7-1.2-1.7-2.6v-15.3
	c0-1.4,0.8-2.6,1.7-2.6h10.2 M273.6,443.9h-10.2c-1.9,0-3.4,2.2-3.4,5v15.2c0,2.8,1.5,5,3.4,5h10.2c1.9,0,3.4-2.2,3.4-5v-15.2
	C277,446.2,275.5,443.9,273.6,443.9"/>
<path class="st4" d="M266.8,453.9c0.9,0,1.7,1.2,1.7,2.6s-0.8,2.6-1.7,2.6c-0.9,0-1.7-1.2-1.7-2.6S265.9,453.9,266.8,453.9
	 M266.8,451.5c-1.9,0-3.4,2.2-3.4,5c0,2.8,1.5,5,3.4,5c1.9,0,3.4-2.2,3.4-5C270.2,453.7,268.7,451.5,266.8,451.5"/>
<path class="st4" d="M231.3,373.4c2.8,0,5,3.4,5,7.6c0,4.2-2.3,7.6-5,7.6c-2.8,0-5-3.4-5-7.6C226.2,376.8,228.5,373.4,231.3,373.4
	 M231.3,370.9c-3.8,0-6.8,4.5-6.8,10s3,10,6.8,10c3.8,0,6.8-4.5,6.8-10S235,370.9,231.3,370.9"/>
<path class="st4" d="M233,381c0,1.4-0.8,2.6-1.7,2.6c-0.9,0-1.7-1.2-1.7-2.6c0-1.4,0.8-2.6,1.7-2.6C232.3,378.4,233,379.6,233,381"
	/>
<polygon class="st4" points="246,384.4 238.3,373.1 239.5,371.3 247.2,382.6 "/>
<path class="st4" d="M309.2,426.3h-1.7c-0.9,0-1.7-1.2-1.7-2.6c0-1.4,0.8-2.6,1.7-2.6h1.7c0.9,0,1.7,1.2,1.7,2.6
	C310.9,425.1,310.1,426.3,309.2,426.3"/>
<path class="st4" d="M229.6,426.3H228c-0.9,0-1.7-1.2-1.7-2.6c0-1.4,0.8-2.6,1.7-2.6h1.7c0.9,0,1.7,1.2,1.7,2.6
	C231.3,425.1,230.5,426.3,229.6,426.3"/>
<polygon class="st4" points="259.2,421.3 238.1,421.3 238.1,418.7 260,418.7 "/>
<rect x="238.1" y="423.7" class="st4" width="20.3" height="2.6"/>
<polygon class="st4" points="299.1,421.3 277.9,421.3 277,418.7 299.1,418.7 "/>
<rect x="278.7" y="423.7" class="st4" width="20.3" height="2.6"/>
<path class="st4" d="M310.1,393.6c-0.2,0-0.5-0.1-0.6-0.3l-5-7.6c-0.3-0.5-0.3-1.3,0-1.8s0.9-0.5,1.2,0l5,7.6c0.3,0.5,0.3,1.3,0,1.8
	C310.5,393.4,310.3,393.6,310.1,393.6"/>
<path class="st4" d="M313.4,388.5c-0.2,0-0.5-0.1-0.6-0.3l-5-7.6c-0.3-0.5-0.3-1.3,0-1.8s0.9-0.5,1.2,0l5,7.6c0.3,0.5,0.3,1.3,0,1.8
	C313.9,388.4,313.7,388.5,313.4,388.5"/>
<path class="st4" d="M299.5,398.6l12.4-18.6c0.3-0.5,0.9-0.5,1.2,0c0.3,0.5,0.3,1.3,0,1.8l-13,19.2L299.5,398.6z"/>
<polygon class="st4" points="299.1,388.5 299.1,403.6 300.7,406.1 300.7,386 292.2,386 293,388.5 "/>
<path class="st4" d="M231.3,428.8h6.8v-10h-6.8V428.8z M229.6,431.3h10.2v-15.2h-10.2V431.3z"/>
<path class="st4" d="M299.1,428.8h6.8v-10h-6.8V428.8z M297.3,431.3h10.2v-15.2h-10.2V431.3z"/>
<path id="XMLID_84_" class="st5" d="M465.5,402.6l-100-0.4l-0.2,73.8l100,0.4L465.5,402.6z M463.7,474.3l-97-0.4l0.2-69.6l97,0.4
	L463.7,474.3L463.7,474.3z"/>
<path id="XMLID_78_" class="st5" d="M361.3,401.4l-0.2,77.5v2.1v5.8c0,2.4,1.5,4.5,3.2,4.5l42.7,0.2l-1.9,14.9h-7.8
	c-2,0-3.7,2.1-3.7,4.9v2.7l42.6,0.2v-2.7c0-2.6-1.7-4.9-3.7-4.9h-9.1l-1.8-14.9l44,0.2c1.9,0,3.4-1.9,3.4-4.5v-5.7v-2.1l0.2-77.5
	c0-2.4-1.5-4.5-3.2-4.5l-101.5-0.4C362.8,397,361.3,399,361.3,401.4z M432.7,508.6c1.2,0,2.1,1.3,2.1,2.8v0.7l-39.5-0.2v-0.7
	c0-1.6,0.9-2.7,2.1-2.7h7.6l18.9,0.1H432.7z M422,506.4l-15.2-0.1l1.9-14.9l11.4,0.1L422,506.4z M467.6,487.2c0,1.3-0.8,2.3-1.7,2.3
	l-44.3-0.2l-14.2-0.1l-43.1-0.2c-0.9,0-1.7-1.1-1.7-2.3V481l104.9,0.4L467.6,487.2L467.6,487.2z M467.9,401.9l-0.2,77.5l-105-0.4
	l0.2-77.5c0-1.3,0.8-2.3,1.7-2.3l101.5,0.4C467,399.5,467.9,400.6,467.9,401.9z"/>
<polygon class="st6" points="430.9,465.6 418.4,457.6 419,457 431.5,465 "/>
<polygon class="st6" points="419,458.1 418.4,457.5 430.9,449.5 431.5,450.1 "/>
<polygon class="st6" points="430.9,450.6 418.4,442.6 419,442 431.5,450 "/>
<polygon class="st6" points="419,443.1 418.4,442.5 430.9,434.5 431.5,435.1 "/>
<polygon class="st6" points="430.9,435.7 418.4,427.7 419,427 431.5,435 "/>
<polygon class="st6" points="419,428.2 418.4,427.6 430.9,419.6 431.5,420.2 "/>
<polygon class="st6" points="419.2,430.9 409.1,430.9 408.6,430.1 419.2,430.1 "/>
<rect x="409.6" y="450.9" class="st6" width="9.5" height="0.8"/>
<path class="st6" d="M423.3,416.8h6.4v-3.3h-6.4V416.8z M422.3,417.6h8.5v-5h-8.5V417.6z"/>
<path class="st6" d="M419.2,465H434v-47.3h-14.9V465z M418.1,465.8h17v-49h-17V465.8z"/>
<path class="st6" d="M407.4,463.3v0.8c0,0.4-0.5,0.8-1,0.8h-4.3c-0.6,0-1-0.4-1-0.8v-0.8H407.4z M408.6,462.5h-8.5v1.7
	c0,0.9,0.9,1.7,2.1,1.7h4.3c1.2,0,2.1-0.7,2.1-1.7V462.5z"/>
<path class="st6" d="M406.7,425.1l2.9,9.2v28.2H399v-28.2l2.9-9.2H406.7z M407.4,424.3H401l-3.1,9.9v29h12.8v-29L407.4,424.3z"/>
<rect x="430.8" y="419.3" class="st6" width="1" height="45.7"/>
<rect x="419.2" y="419.3" class="st6" width="12.8" height="0.8"/>
<rect x="397.9" y="434.3" class="st6" width="12.8" height="0.8"/>
<path class="st6" d="M397.9,457.7v4.8h-4.3l0,0l0,0L397.9,457.7z M398.9,455l-6.2,7c-0.5,0.5,0,1.3,0.8,1.3h5.3V455z"/>
<path class="st6" d="M410.7,457.7l4.2,4.8l0,0l0,0h-4.3v-4.8H410.7z M409.6,455v8.3h5.3c0.8,0,1.4-0.8,0.8-1.3L409.6,455z"/>
<path class="st6" d="M405.3,441.7c0,0.4-0.5,0.8-1,0.8c-0.5,0-1-0.4-1-0.8s0.5-0.8,1-0.8C404.8,440.9,405.3,441.3,405.3,441.7"/>
<path class="st6" d="M405.3,446.7c0,0.4-0.5,0.8-1,0.8c-0.5,0-1-0.4-1-0.8s0.5-0.8,1-0.8C404.8,446,405.3,446.2,405.3,446.7"/>
<path class="st6" d="M404.3,455.8L404.3,455.8c-0.6,0-1-0.4-1-0.8v-3.3c0-0.4,0.5-0.8,1-0.8c0.6,0,1,0.4,1,0.8v3.3
	C405.3,455.5,404.9,455.8,404.3,455.8"/>
<path class="st6" d="M405.3,419.3h-2.1v-5.8c0-0.4,0.5-0.8,1-0.8c0.6,0,1,0.4,1,0.8V419.3z"/>
<path class="st6" d="M404.3,419.3c1.2,0,2.1,0.7,2.1,1.7v3.3h-4.3V421C402.2,420.1,403.1,419.3,404.3,419.3 M404.3,418.5
	c-1.8,0-3.1,1.1-3.1,2.5v4.1h6.4V421C407.4,419.6,406.1,418.5,404.3,418.5"/>
<g>
	<defs>
		<polygon id="SVGID_1_" points="156.6,442.5 54,442.5 53.2,439.5 157.4,439.5 		"/>
	</defs>
	<clipPath id="SVGID_2_">
		<use xlink:href="#SVGID_1_"  style="overflow:visible;"/>
	</clipPath>
	<g class="st7">
		<defs>
			<rect id="SVGID_3_" x="-298.5" y="-1570.8" width="1323.8" height="2289.1"/>
		</defs>
		<clipPath id="SVGID_4_">
			<use xlink:href="#SVGID_3_"  style="overflow:visible;"/>
		</clipPath>
		<rect x="44.9" y="424.8" class="st8" width="120.8" height="32.3"/>
	</g>
</g>
<g>
	<defs>
		<path id="SVGID_5_" d="M72.2,480.6c6.4,0,11.6,9.2,11.6,20.5c0,11.3-5.2,20.5-11.6,20.5s-11.6-9.2-11.6-20.5
			C60.6,489.8,65.8,480.6,72.2,480.6 M72.2,477.7c-7.3,0-13.2,10.5-13.2,23.5s5.9,23.5,13.2,23.5s13.2-10.5,13.2-23.5
			S79.5,477.7,72.2,477.7"/>
	</defs>
	<clipPath id="SVGID_6_">
		<use xlink:href="#SVGID_5_"  style="overflow:visible;"/>
	</clipPath>
	<g class="st9">
		<defs>
			<rect id="SVGID_7_" x="-298.5" y="-1570.8" width="1323.8" height="2289.1"/>
		</defs>
		<clipPath id="SVGID_8_">
			<use xlink:href="#SVGID_7_"  style="overflow:visible;"/>
		</clipPath>
		<rect x="50.7" y="463" class="st10" width="43" height="76.3"/>
	</g>
</g>
<g>
	<defs>
		<path id="SVGID_9_" d="M72.2,492.3c2.7,0,5,4,5,8.8s-2.2,8.8-5,8.8c-2.7,0-5-4-5-8.8S69.5,492.3,72.2,492.3 M72.2,489.4
			c-3.7,0-6.6,5.3-6.6,11.7c0,6.5,3,11.7,6.6,11.7c3.7,0,6.6-5.3,6.6-11.7C78.8,494.7,75.9,489.4,72.2,489.4"/>
	</defs>
	<clipPath id="SVGID_10_">
		<use xlink:href="#SVGID_9_"  style="overflow:visible;"/>
	</clipPath>
	<g class="st11">
		<defs>
			<rect id="SVGID_11_" x="-298.5" y="-1570.8" width="1323.8" height="2289.1"/>
		</defs>
		<clipPath id="SVGID_12_">
			<use xlink:href="#SVGID_11_"  style="overflow:visible;"/>
		</clipPath>
		<rect x="57.3" y="474.7" class="st12" width="29.8" height="52.8"/>
	</g>
</g>
<g>
	<defs>
		<path id="SVGID_13_" d="M105.3,492.3c2.7,0,5,4,5,8.8s-2.2,8.8-5,8.8s-5-4-5-8.8S102.6,492.3,105.3,492.3 M105.3,489.4
			c-3.7,0-6.6,5.3-6.6,11.7c0,6.5,3,11.7,6.6,11.7s6.6-5.3,6.6-11.7C111.9,494.7,109,489.4,105.3,489.4"/>
	</defs>
	<clipPath id="SVGID_14_">
		<use xlink:href="#SVGID_13_"  style="overflow:visible;"/>
	</clipPath>
	<g class="st13">
		<defs>
			<rect id="SVGID_15_" x="-298.5" y="-1570.8" width="1323.8" height="2289.1"/>
		</defs>
		<clipPath id="SVGID_16_">
			<use xlink:href="#SVGID_15_"  style="overflow:visible;"/>
		</clipPath>
		<rect x="90.4" y="474.7" class="st14" width="29.8" height="52.8"/>
	</g>
</g>
<g>
	<defs>
		<path id="SVGID_17_" d="M138.4,492.3c2.7,0,5,4,5,8.8s-2.2,8.8-5,8.8s-5-4-5-8.8S135.7,492.3,138.4,492.3 M138.4,489.4
			c-3.7,0-6.6,5.3-6.6,11.7c0,6.5,3,11.7,6.6,11.7s6.6-5.3,6.6-11.7C145,494.7,142,489.4,138.4,489.4"/>
	</defs>
	<clipPath id="SVGID_18_">
		<use xlink:href="#SVGID_17_"  style="overflow:visible;"/>
	</clipPath>
	<g class="st15">
		<defs>
			<rect id="SVGID_19_" x="-298.5" y="-1570.8" width="1323.8" height="2289.1"/>
		</defs>
		<clipPath id="SVGID_20_">
			<use xlink:href="#SVGID_19_"  style="overflow:visible;"/>
		</clipPath>
		<rect x="123.5" y="474.7" class="st16" width="29.8" height="52.8"/>
	</g>
</g>
<g>
	<defs>
		<path id="SVGID_21_" d="M138.4,480.6c6.4,0,11.6,9.2,11.6,20.5c0,11.3-5.2,20.5-11.6,20.5c-6.4,0-11.6-9.2-11.6-20.5
			C126.8,489.8,132,480.6,138.4,480.6 M138.4,477.7c-7.3,0-13.2,10.5-13.2,23.5s5.9,23.5,13.2,23.5c7.3,0,13.2-10.5,13.2-23.5
			S145.7,477.7,138.4,477.7"/>
	</defs>
	<clipPath id="SVGID_22_">
		<use xlink:href="#SVGID_21_"  style="overflow:visible;"/>
	</clipPath>
	<g class="st17">
		<defs>
			<rect id="SVGID_23_" x="-298.5" y="-1570.8" width="1323.8" height="2289.1"/>
		</defs>
		<clipPath id="SVGID_24_">
			<use xlink:href="#SVGID_23_"  style="overflow:visible;"/>
		</clipPath>
		<rect x="116.9" y="463" class="st18" width="43" height="76.3"/>
	</g>
</g>
<g>
	<defs>
		<path id="SVGID_25_" d="M105.3,480.6c6.4,0,11.6,9.2,11.6,20.5c0,11.3-5.2,20.5-11.6,20.5s-11.6-9.2-11.6-20.5
			C93.7,489.8,98.9,480.6,105.3,480.6 M105.3,477.7c-7.3,0-13.2,10.5-13.2,23.5s5.9,23.5,13.2,23.5s13.2-10.5,13.2-23.5
			S112.6,477.7,105.3,477.7"/>
	</defs>
	<clipPath id="SVGID_26_">
		<use xlink:href="#SVGID_25_"  style="overflow:visible;"/>
	</clipPath>
	<g class="st19">
		<defs>
			<rect id="SVGID_27_" x="-298.5" y="-1570.8" width="1323.8" height="2289.1"/>
		</defs>
		<clipPath id="SVGID_28_">
			<use xlink:href="#SVGID_27_"  style="overflow:visible;"/>
		</clipPath>
		<rect x="83.8" y="463" class="st20" width="43" height="76.3"/>
	</g>
</g>
<g>
	<defs>
		<path id="SVGID_29_" d="M123.5,424.8h33.2V419h-23.2V424.8z M121.8,427.8h36.5V416h-26.5V427.8z"/>
	</defs>
	<clipPath id="SVGID_30_">
		<use xlink:href="#SVGID_29_"  style="overflow:visible;"/>
	</clipPath>
	<g class="st21">
		<defs>
			<rect id="SVGID_31_" x="-298.5" y="-1570.8" width="1323.8" height="2289.1"/>
		</defs>
		<clipPath id="SVGID_32_">
			<use xlink:href="#SVGID_31_"  style="overflow:visible;"/>
		</clipPath>
		<rect x="113.6" y="401.4" class="st22" width="43" height="41.1"/>
	</g>
</g>
<g>
	<defs>
		<path id="SVGID_33_" d="M65.6,424.8h5v-11.7h-5V424.8z M63.9,427.8h8.3v-17.6h-8.3V427.8z"/>
	</defs>
	<clipPath id="SVGID_34_">
		<use xlink:href="#SVGID_33_"  style="overflow:visible;"/>
	</clipPath>
	<g class="st23">
		<defs>
			<rect id="SVGID_35_" x="-298.5" y="-1570.8" width="1323.8" height="2289.1"/>
		</defs>
		<clipPath id="SVGID_36_">
			<use xlink:href="#SVGID_35_"  style="overflow:visible;"/>
		</clipPath>
		<rect x="55.7" y="395.5" class="st24" width="24.8" height="47"/>
	</g>
</g>
<g>
	<defs>
		<rect id="SVGID_37_" x="98.7" y="398.4" width="1.7" height="19.1"/>
	</defs>
	<clipPath id="SVGID_38_">
		<use xlink:href="#SVGID_37_"  style="overflow:visible;"/>
	</clipPath>
	<g class="st25">
		<defs>
			<rect id="SVGID_39_" x="-298.5" y="-1570.8" width="1323.8" height="2289.1"/>
		</defs>
		<clipPath id="SVGID_40_">
			<use xlink:href="#SVGID_39_"  style="overflow:visible;"/>
		</clipPath>
		<rect x="90.4" y="383.8" class="st26" width="18.2" height="48.4"/>
	</g>
</g>
<g>
	<defs>
		<rect id="SVGID_41_" x="103.6" y="398.4" width="1.7" height="19.1"/>
	</defs>
	<clipPath id="SVGID_42_">
		<use xlink:href="#SVGID_41_"  style="overflow:visible;"/>
	</clipPath>
	<g class="st27">
		<defs>
			<rect id="SVGID_43_" x="-298.5" y="-1570.8" width="1323.8" height="2289.1"/>
		</defs>
		<clipPath id="SVGID_44_">
			<use xlink:href="#SVGID_43_"  style="overflow:visible;"/>
		</clipPath>
		<rect x="95.4" y="383.8" class="st28" width="18.2" height="48.4"/>
	</g>
</g>
<g>
	<defs>
		<path id="SVGID_45_" d="M107.8,427.8c0-5.7-2.6-10.3-5.8-10.3s-5.8,4.6-5.8,10.3h-1.7c0-7.3,3.3-13.2,7.4-13.2s7.4,5.9,7.4,13.2
			H107.8z"/>
	</defs>
	<clipPath id="SVGID_46_">
		<use xlink:href="#SVGID_45_"  style="overflow:visible;"/>
	</clipPath>
	<g class="st29">
		<defs>
			<rect id="SVGID_47_" x="-298.5" y="-1570.8" width="1323.8" height="2289.1"/>
		</defs>
		<clipPath id="SVGID_48_">
			<use xlink:href="#SVGID_47_"  style="overflow:visible;"/>
		</clipPath>
		<rect x="86.3" y="399.9" class="st30" width="31.4" height="42.6"/>
	</g>
</g>
<g>
	<defs>
		<path id="SVGID_49_" d="M114.5,486.5h14.7l1.4-2.9h-17.6L114.5,486.5z M81.3,486.5h14.7l1.5-2.9H79.8L81.3,486.5z M153.8,427.8
			l2.7,12l-4.4,41.3c-0.1,1.4-0.8,2.5-1.6,2.5h-4.5l1.6,2.9h3.9c1.6,0,3-2.1,3.3-5l4.5-42l-3.3-14.7H57.3l-5,14.7l4.5,42
			c0.3,2.9,1.6,5,3.3,5h3.8l1.6-2.9h-4.4c-0.8,0-1.5-1-1.6-2.6l-4.4-40.9l4.2-12.3H153.8z"/>
	</defs>
	<clipPath id="SVGID_50_">
		<use xlink:href="#SVGID_49_"  style="overflow:visible;"/>
	</clipPath>
	<g class="st31">
		<defs>
			<rect id="SVGID_51_" x="-298.5" y="-1570.8" width="1323.8" height="2289.1"/>
		</defs>
		<clipPath id="SVGID_52_">
			<use xlink:href="#SVGID_51_"  style="overflow:visible;"/>
		</clipPath>
		<rect x="44.1" y="410.2" class="st32" width="122.5" height="91"/>
	</g>
</g>
<g>
	<defs>
		<rect id="SVGID_53_" x="67.2" y="395.5" width="1.7" height="14.7"/>
	</defs>
	<clipPath id="SVGID_54_">
		<use xlink:href="#SVGID_53_"  style="overflow:visible;"/>
	</clipPath>
	<g class="st33">
		<defs>
			<rect id="SVGID_55_" x="-298.5" y="-1570.8" width="1323.8" height="2289.1"/>
		</defs>
		<clipPath id="SVGID_56_">
			<use xlink:href="#SVGID_55_"  style="overflow:visible;"/>
		</clipPath>
		<rect x="59" y="380.8" class="st34" width="18.2" height="44"/>
	</g>
</g>
<g>
	<defs>
		<path id="SVGID_57_" d="M130.9,451.3h19.9c0.5,0,0.8-0.7,0.8-1.5s-0.4-1.5-0.8-1.5h-19.9c-0.5,0-0.8,0.7-0.8,1.5
			S130.5,451.3,130.9,451.3"/>
	</defs>
	<clipPath id="SVGID_58_">
		<use xlink:href="#SVGID_57_"  style="overflow:visible;"/>
	</clipPath>
	<g class="st35">
		<defs>
			<rect id="SVGID_59_" x="-298.5" y="-1570.8" width="1323.8" height="2289.1"/>
		</defs>
		<clipPath id="SVGID_60_">
			<use xlink:href="#SVGID_59_"  style="overflow:visible;"/>
		</clipPath>
		<rect x="121.8" y="433.6" class="st36" width="38.1" height="32.3"/>
	</g>
</g>
<g>
	<defs>
		<path id="SVGID_61_" d="M70.5,394c0-2.4-1.1-4.4-2.5-4.4s-2.5,2-2.5,4.4s1.1,4.4,2.5,4.4S70.5,396.5,70.5,394"/>
	</defs>
	<clipPath id="SVGID_62_">
		<use xlink:href="#SVGID_61_"  style="overflow:visible;"/>
	</clipPath>
	<g class="st37">
		<defs>
			<rect id="SVGID_63_" x="-298.5" y="-1570.8" width="1323.8" height="2289.1"/>
		</defs>
		<clipPath id="SVGID_64_">
			<use xlink:href="#SVGID_63_"  style="overflow:visible;"/>
		</clipPath>
		<rect x="57.3" y="375" class="st38" width="21.5" height="38.2"/>
	</g>
</g>
<g>
	<defs>
		<path id="SVGID_65_" d="M75.5,395.5c-0.5,0-0.8-0.7-0.8-1.5c0-6.5-3-11.7-6.6-11.7s-6.6,5.3-6.6,11.7c0,0.8-0.4,1.5-0.8,1.5
			s-0.8-0.7-0.8-1.5c0-8.1,3.7-14.7,8.3-14.7s8.3,6.6,8.3,14.7C76.3,394.8,76,395.5,75.5,395.5"/>
	</defs>
	<clipPath id="SVGID_66_">
		<use xlink:href="#SVGID_65_"  style="overflow:visible;"/>
	</clipPath>
	<g class="st39">
		<defs>
			<rect id="SVGID_67_" x="-298.5" y="-1570.8" width="1323.8" height="2289.1"/>
		</defs>
		<clipPath id="SVGID_68_">
			<use xlink:href="#SVGID_67_"  style="overflow:visible;"/>
		</clipPath>
		<rect x="51.5" y="364.7" class="st40" width="33.1" height="45.5"/>
	</g>
</g>
<g>
	<defs>
		<path id="SVGID_69_" d="M78.8,395.5c-0.5,0-0.8-0.7-0.8-1.5c0-9.7-4.5-17.6-9.9-17.6s-9.9,7.9-9.9,17.6c0,0.8-0.4,1.5-0.8,1.5
			c-0.5,0-0.8-0.7-0.8-1.5c0-11.3,5.2-20.5,11.6-20.5s11.6,9.2,11.6,20.5C79.6,394.8,79.3,395.5,78.8,395.5"/>
	</defs>
	<clipPath id="SVGID_70_">
		<use xlink:href="#SVGID_69_"  style="overflow:visible;"/>
	</clipPath>
	<g class="st41">
		<defs>
			<rect id="SVGID_71_" x="-298.5" y="-1570.8" width="1323.8" height="2289.1"/>
		</defs>
		<clipPath id="SVGID_72_">
			<use xlink:href="#SVGID_71_"  style="overflow:visible;"/>
		</clipPath>
		<rect x="48.2" y="358.8" class="st42" width="39.7" height="51.4"/>
	</g>
</g>
<g>
	<defs>
		<path id="SVGID_73_" d="M85.4,457.1c0.9,0,1.7,1.3,1.7,2.9s-0.7,2.9-1.7,2.9H67.2c-0.9,0-1.7-1.3-1.7-2.9s0.7-2.9,1.7-2.9H85.4
			 M85.4,454.2H67.2c-1.8,0-3.3,2.6-3.3,5.9s1.5,5.9,3.3,5.9h18.2c1.8,0,3.3-2.6,3.3-5.9S87.3,454.2,85.4,454.2"/>
	</defs>
	<clipPath id="SVGID_74_">
		<use xlink:href="#SVGID_73_"  style="overflow:visible;"/>
	</clipPath>
	<g class="st43">
		<defs>
			<rect id="SVGID_75_" x="-298.5" y="-1570.8" width="1323.8" height="2289.1"/>
		</defs>
		<clipPath id="SVGID_76_">
			<use xlink:href="#SVGID_75_"  style="overflow:visible;"/>
		</clipPath>
		<rect x="55.7" y="439.5" class="st44" width="41.4" height="41.1"/>
	</g>
</g>
<g>
	<defs>
		<path id="SVGID_77_" d="M95.4,457.1c0.9,0,1.7,1.3,1.7,2.9s-0.7,2.9-1.7,2.9s-1.7-1.3-1.7-2.9S94.5,457.1,95.4,457.1 M95.4,454.2
			c-1.8,0-3.3,2.6-3.3,5.9s1.5,5.9,3.3,5.9s3.3-2.6,3.3-5.9S97.2,454.2,95.4,454.2"/>
	</defs>
	<clipPath id="SVGID_78_">
		<use xlink:href="#SVGID_77_"  style="overflow:visible;"/>
	</clipPath>
	<g class="st45">
		<defs>
			<rect id="SVGID_79_" x="-298.5" y="-1570.8" width="1323.8" height="2289.1"/>
		</defs>
		<clipPath id="SVGID_80_">
			<use xlink:href="#SVGID_79_"  style="overflow:visible;"/>
		</clipPath>
		<rect x="83.8" y="439.5" class="st46" width="23.2" height="41.1"/>
	</g>
</g>
<g>
	<defs>
		<polygon id="SVGID_81_" points="133.4,407.2 131.8,404.3 131.8,416 133.4,416 		"/>
	</defs>
	<clipPath id="SVGID_82_">
		<use xlink:href="#SVGID_81_"  style="overflow:visible;"/>
	</clipPath>
	<g class="st47">
		<defs>
			<rect id="SVGID_83_" x="-298.5" y="-1570.8" width="1323.8" height="2289.1"/>
		</defs>
		<clipPath id="SVGID_84_">
			<use xlink:href="#SVGID_83_"  style="overflow:visible;"/>
		</clipPath>
		<rect x="123.5" y="389.6" class="st48" width="18.2" height="41.1"/>
	</g>
</g>
<g>
	<defs>
		<rect id="SVGID_85_" x="136.7" y="407.2" width="1.7" height="8.8"/>
	</defs>
	<clipPath id="SVGID_86_">
		<use xlink:href="#SVGID_85_"  style="overflow:visible;"/>
	</clipPath>
	<g class="st49">
		<defs>
			<rect id="SVGID_87_" x="-298.5" y="-1570.8" width="1323.8" height="2289.1"/>
		</defs>
		<clipPath id="SVGID_88_">
			<use xlink:href="#SVGID_87_"  style="overflow:visible;"/>
		</clipPath>
		<rect x="128.5" y="392.6" class="st50" width="18.2" height="38.2"/>
	</g>
</g>
<g>
	<defs>
		<path id="SVGID_89_" d="M131.5,384.5l11.5,20.3c-1.3,1.6-2.9,2.4-4.6,2.4c-2.2,0-4.3-1.5-5.9-4.3
			C129.7,397.9,129.4,390.2,131.5,384.5z M131.4,380.1c-3.9,6.9-3.9,18,0,24.9c1.9,3.4,4.5,5.2,7,5.2c2.5,0,5.1-1.7,7-5.2
			L131.4,380.1z"/>
	</defs>
	<clipPath id="SVGID_90_">
		<use xlink:href="#SVGID_89_"  style="overflow:visible;"/>
	</clipPath>
	<g class="st51">
		<defs>
			<rect id="SVGID_91_" x="-298.5" y="-1570.8" width="1323.8" height="2289.1"/>
		</defs>
		<clipPath id="SVGID_92_">
			<use xlink:href="#SVGID_91_"  style="overflow:visible;"/>
		</clipPath>
		<rect x="120.2" y="365.4" class="st52" width="33.5" height="59.4"/>
	</g>
</g>
<g>
	<defs>
		<path id="SVGID_93_" d="M143.4,386.7c0,1.6-0.7,2.9-1.7,2.9s-1.7-1.3-1.7-2.9c0-1.6,0.7-2.9,1.7-2.9S143.4,385.1,143.4,386.7"/>
	</defs>
	<clipPath id="SVGID_94_">
		<use xlink:href="#SVGID_93_"  style="overflow:visible;"/>
	</clipPath>
	<g class="st53">
		<defs>
			<rect id="SVGID_95_" x="-298.5" y="-1570.8" width="1323.8" height="2289.1"/>
		</defs>
		<clipPath id="SVGID_96_">
			<use xlink:href="#SVGID_95_"  style="overflow:visible;"/>
		</clipPath>
		<rect x="131.8" y="369.1" class="st54" width="19.9" height="35.2"/>
	</g>
</g>
<g>
	<defs>
		<polygon id="SVGID_97_" points="139,393.6 137.8,391.5 141.1,385.7 142.3,387.7 		"/>
	</defs>
	<clipPath id="SVGID_98_">
		<use xlink:href="#SVGID_97_"  style="overflow:visible;"/>
	</clipPath>
	<g class="st55">
		<defs>
			<rect id="SVGID_99_" x="-298.5" y="-1570.8" width="1323.8" height="2289.1"/>
		</defs>
		<clipPath id="SVGID_100_">
			<use xlink:href="#SVGID_99_"  style="overflow:visible;"/>
		</clipPath>
		<rect x="129.5" y="371" class="st56" width="21" height="37.3"/>
	</g>
</g>
<g>
	<defs>
		<path id="SVGID_101_" d="M113.6,375c0.9,0,1.7,1.3,1.7,2.9v17.6c0,1.6-0.7,2.9-1.7,2.9H95.4c-0.9,0-1.7-1.3-1.7-2.9v-17.6
			c0-1.6,0.7-2.9,1.7-2.9H113.6 M113.6,372H95.4c-1.8,0-3.3,2.6-3.3,5.9v17.6c0,3.2,1.5,5.9,3.3,5.9h18.2c1.8,0,3.3-2.6,3.3-5.9
			v-17.6C116.9,374.7,115.4,372,113.6,372"/>
	</defs>
	<clipPath id="SVGID_102_">
		<use xlink:href="#SVGID_101_"  style="overflow:visible;"/>
	</clipPath>
	<g class="st57">
		<defs>
			<rect id="SVGID_103_" x="-298.5" y="-1570.8" width="1323.8" height="2289.1"/>
		</defs>
		<clipPath id="SVGID_104_">
			<use xlink:href="#SVGID_103_"  style="overflow:visible;"/>
		</clipPath>
		<rect x="83.8" y="357.3" class="st58" width="41.4" height="58.7"/>
	</g>
</g>
<g>
	<defs>
		<path id="SVGID_105_" d="M107,380.8c1.8,0,3.3,2.6,3.3,5.9c0,3.2-1.5,5.9-3.3,5.9c-1.8,0-3.3-2.6-3.3-5.9
			C103.6,383.5,105.1,380.8,107,380.8 M107,377.9c-2.7,0-5,3.9-5,8.8c0,4.9,2.2,8.8,5,8.8s5-3.9,5-8.8
			C111.9,381.8,109.7,377.9,107,377.9"/>
	</defs>
	<clipPath id="SVGID_106_">
		<use xlink:href="#SVGID_105_"  style="overflow:visible;"/>
	</clipPath>
	<g class="st59">
		<defs>
			<rect id="SVGID_107_" x="-298.5" y="-1570.8" width="1323.8" height="2289.1"/>
		</defs>
		<clipPath id="SVGID_108_">
			<use xlink:href="#SVGID_107_"  style="overflow:visible;"/>
		</clipPath>
		<rect x="93.7" y="363.2" class="st60" width="26.5" height="47"/>
	</g>
</g>
<g>
	<defs>
		<rect id="SVGID_109_" x="97" y="375" width="1.7" height="23.5"/>
	</defs>
	<clipPath id="SVGID_110_">
		<use xlink:href="#SVGID_109_"  style="overflow:visible;"/>
	</clipPath>
	<g class="st61">
		<defs>
			<rect id="SVGID_111_" x="-298.5" y="-1570.8" width="1323.8" height="2289.1"/>
		</defs>
		<clipPath id="SVGID_112_">
			<use xlink:href="#SVGID_111_"  style="overflow:visible;"/>
		</clipPath>
		<rect x="88.8" y="360.3" class="st62" width="18.2" height="52.8"/>
	</g>
</g>
<linearGradient id="SVGID_113_" gradientUnits="userSpaceOnUse" x1="209.3762" y1="105.5113" x2="303" y2="105.5113">
	<stop  offset="0" style="stop-color:#FFFFFF"/>
	<stop  offset="1" style="stop-color:#000000"/>
</linearGradient>
<path class="st63" d="M296.9,132l0.3-0.6c7.9-14.9,4-31.9,2.6-36.8l-0.2-0.6l0-0.6c1.2-24.3-14-33.5-15.8-34.5l-0.7-0.4l-0.3-0.9
	c-3.2-9.8-7.9-15-13.6-15c-5.1,0-9.8,4.1-12.1,6.5l-1,1.1l-1-1.1c-2.3-2.4-7-6.5-12.1-6.5c-5.7,0-10.4,5.2-13.6,15l-0.3,0.9
	l-0.7,0.4c-1.7,1-17,10.3-15.8,34.5l0,0.6l-0.2,0.6c-1.4,4.9-5.3,21.9,2.6,36.8l0.3,0.6l0.1,0.7c0.4,5.1,2.7,22.5,17.7,30l0.2,0.1
	l0.2,0.2c0.8,0.8,5.1,4.6,10.5,5.2l0.6,0.1c0.3,0,0.6,0.1,0.9,0.1c3.4,0,6.6-1.4,9.6-4.1l1-0.9l1,0.9c2.9,2.7,6.2,4.1,9.6,4.1
	c0.3,0,0.6,0,0.9-0.1l0.6-0.1c5.5-0.6,9.7-4.5,10.6-5.2l0.2-0.2l0.2-0.1c14.9-7.5,17.3-24.9,17.7-30L296.9,132z M255.2,75.9
	l-1.6,0.2c-9,1.2-12.4,11.8-12.6,12.2c-0.1,0.4-0.1,0.8,0,1c0.1,0.3,0.3,0.6,0.5,0.7c0.1,0.1,0.2,0.1,0.4,0.1c0.4,0,0.7-0.3,0.8-0.8
	c0.1-0.4,2.9-9,10.5-10.5l2-0.4v46.4l-2.8-2.9c-2.6-2.7-5.4-5-6.5-5.9l-0.9-0.7V101c0-0.7-0.4-1.3-0.9-1.3c-0.5,0-0.9,0.6-0.9,1.3
	v14.5l-9.1,10.8c-0.4,0.5-0.4,1.3-0.1,1.8c0.2,0.3,0.4,0.5,0.7,0.5c0.2,0,0.4-0.1,0.6-0.3l8.9-10.7l1.1,0.9c1.6,1.3,7,5.9,9.4,9.6
	l0.5,0.7v32.3l-0.8,0.8c-2,1.9-4.3,3.2-6.6,3.6l-2.4,0.5l0.4-3.5c0.8-6.6,0.1-12.4-2.3-17l-0.7-1.3l0.6-1.4c1.1-2.6,2.4-4.2,3.9-4.6
	c0.5-0.1,0.8-0.8,0.7-1.5c-0.1-0.6-0.5-1.1-0.9-1.1l-0.2,0c-1.7,0.4-3.3,1.9-4.5,4.5l-1,2l-1.4-1.4c-1.8-1.8-3.2-2.4-3.3-2.5
	c-0.1,0-0.2-0.1-0.3-0.1c-0.4,0-0.7,0.4-0.9,0.9c-0.2,0.7,0.1,1.4,0.6,1.6c0.4,0.2,2.7,1.4,4.7,4.3l0.1,0.1l0.1,0.2
	c0.1,0.1,0.1,0.2,0.2,0.3l0.1,0.1l0.1,0.1c1.8,3.1,3.8,8.6,2.4,17.3l-0.4,2.5l-1.7-0.5c-4.1-1.3-7.1-4.2-7.5-4.6l-0.1-0.1l-0.1-0.1
	c-12.6-6.1-15.7-19.9-16.5-25.5l-0.3-2.3l1.6-0.7c4.4-1.8,7-4.7,7.9-8.6c1.5-6.8-3.2-13.9-3.4-14.2c-0.2-0.4-0.5-0.4-0.7-0.4
	c-0.2,0-0.5,0.1-0.6,0.4c-0.4,0.5-0.4,1.3,0,1.8c0,0.1,4.1,6.3,3,11.7c-0.7,3.1-3,5.5-7,7l-1.2,0.5l-0.7-1.5
	c-6-12.6-3.4-26.5-2-31.9l0.2-0.6l0.4-0.4c1.7-2,3.6-3,5.7-3c3.2,0,5.8,2.4,6.8,3.4l0.2,0.2l6.8,12.4c0.2,0.3,0.4,0.5,0.7,0.5
	c0.1,0,0.4,0,0.6-0.3c0.2-0.2,0.3-0.5,0.3-0.9c0-0.2,0-0.6-0.2-1l-6.8-12.4l-0.3-0.4c-1.7-1.9-4.9-4.2-8.3-4.2
	c-1.1,0-2.2,0.2-3.2,0.7l-2.5,1.2l0.2-3.8c0.7-11.9,5.7-19.1,9.8-23l2.4-2.3l0.3,4.1c0.3,3.8,1.1,6.9,2.3,8.8
	c1.1,1.8,2.6,2.8,4.3,2.9l0.3,0l0.2-0.2c0.3-0.3,7.7-7.1,11.8-17c0.2-0.4,0.1-0.8,0.1-1s-0.1-0.6-0.4-0.8c-0.1-0.1-0.3-0.2-0.5-0.2
	c-0.3,0-0.6,0.2-0.8,0.6c-3.1,7.4-8.2,13.2-10.3,15.3l-0.7,0.7l-0.8-0.4c-0.7-0.3-1.3-0.9-1.8-1.7c-1.7-2.8-2-7.9-2-10.7l0.1-1.9
	l1.6-0.8l0.2-0.5c2.9-9.9,7.1-14.9,12.4-14.9c4.8,0,9.2,4,11.5,6.4l0.7,0.8L255.2,75.9L255.2,75.9z M295.7,130.1l-1.2-0.5
	c-4-1.6-6.3-3.9-7-7c-1.2-5.4,2.9-11.6,3-11.7c0.3-0.5,0.3-1.3,0-1.8c-0.2-0.2-0.4-0.4-0.6-0.4c-0.1,0-0.4,0.1-0.7,0.4
	c-0.2,0.3-4.9,7.4-3.4,14.2c0.8,3.9,3.5,6.8,7.9,8.6l1.6,0.7l-0.3,2.3c-0.8,5.6-3.9,19.4-16.5,25.5l-0.1,0.1l-0.1,0.1
	c-0.3,0.3-3.3,3.2-7.4,4.5l-1.7,0.5l-0.4-2.5c-1.3-8.7,0.6-14.2,2.4-17.3l0.1-0.1l0.1-0.1c0-0.1,0.1-0.1,0.2-0.3l0.1-0.2l0.1-0.1
	c2-2.9,4.3-4.1,4.7-4.3c0.5-0.2,0.7-1,0.6-1.6c-0.1-0.5-0.5-0.9-0.9-0.9c-0.1,0-0.2,0-0.3,0.1c0,0-1.5,0.7-3.3,2.5l-1.4,1.4l-1-2
	c-1.3-2.5-2.8-4-4.7-4.5c-0.4,0-0.8,0.5-0.9,1.1c-0.1,0.7,0.2,1.4,0.7,1.5c1.5,0.4,2.9,2,3.9,4.6l0.6,1.4l-0.7,1.3
	c-2.3,4.6-3.1,10.3-2.3,17l0.4,3.5l-2.4-0.5c-2.3-0.5-4.5-1.7-6.6-3.6l-0.8-0.8v-32.3l0.5-0.7c2.4-3.7,7.8-8.3,9.4-9.6l1.1-0.9
	l9,10.7c0.2,0.2,0.4,0.3,0.6,0.3c0.3,0,0.5-0.2,0.7-0.5c0.3-0.6,0.3-1.4-0.1-1.8l-9.1-10.8V101c0-0.7-0.4-1.3-0.9-1.3
	s-0.9,0.6-0.9,1.3v14.3l-0.9,0.7c-1.1,0.9-3.8,3.2-6.5,5.9l-2.8,2.9V78.4l2,0.4c7.5,1.5,10.3,10.2,10.5,10.6
	c0.1,0.5,0.5,0.8,0.8,0.8c0.1,0,0.3,0,0.4-0.1c0.5-0.3,0.7-1.1,0.5-1.7c-0.1-0.4-3.6-11-12.6-12.2l-1.6-0.2V52.4l0.7-0.8
	c2.2-2.4,6.7-6.4,11.5-6.4c5.3,0,9.5,5,12.4,14.9l0.2,0.6l0.3,0.2l1.4,0.5l0,2c0,2.8-0.3,7.9-2,10.7c-0.5,0.8-1.1,1.4-1.8,1.7
	l-0.8,0.4l-0.7-0.7c-2.1-2.1-7.2-7.9-10.3-15.3c-0.2-0.4-0.5-0.6-0.8-0.6c-0.2,0-0.3,0.1-0.5,0.2c-0.3,0.2-0.4,0.6-0.4,0.8
	s-0.1,0.6,0.1,1c4.1,9.9,11.7,16.9,11.8,17l0.2,0.2l0.3,0c1.7-0.1,3.2-1.1,4.3-2.9c1.2-2,2-5,2.3-8.8l0.3-4.1l2.4,2.3
	c4.1,3.9,9.1,11.1,9.8,23l0.2,3.8l-2.5-1.2c-1-0.5-2.1-0.7-3.2-0.7c-3.4,0-6.5,2.2-8.3,4.2l-0.3,0.4l-6.8,12.4
	c-0.3,0.6-0.2,1.4,0.2,1.8c0.2,0.2,0.4,0.3,0.6,0.3c0.3,0,0.5-0.2,0.7-0.5l6.8-12.4l0.2-0.2c1-1,3.6-3.4,6.8-3.4c2.1,0,4,1,5.7,3
	l0.4,0.4l0.2,0.6c1.1,4.2,4.1,18.9-2,31.9L295.7,130.1z"/>
<g id="XMLID_2_">
	<path id="XMLID_14_" class="st0" d="M66.8,143.5c0.6-0.9,1.2-1.8,1.9-2.6c3.2-4.2,7-7.7,11.4-10.6c1.8-1.2,3.6-2.3,5.5-3.2
		c-0.6,3.3-3.4,15.7-11.1,25c-1.6,1.8-3.2,3.5-4.9,4.8c-3.1,2.4-6.5,4.1-10.3,5c0.3-1.6,1.2-6.4,4-12
		C64.2,147.7,65.4,145.5,66.8,143.5L66.8,143.5z"/>
	<path id="XMLID_13_" class="st1" d="M67,143.8c-0.1,0.2-0.2,0.3-0.3,0.4c-0.3,0.5-0.6,1-0.9,1.5c-0.1,0.1-0.1,0.2-0.2,0.2
		c-0.2,0.4-0.5,0.9-0.7,1.3c-0.1,0.2-0.2,0.3-0.3,0.6c-0.2,0.2-0.3,0.6-0.4,0.8l-10.2-11.4l3.9-5.1l9.6,10.8
		C67.4,143.2,67.2,143.5,67,143.8z"/>
	<path id="XMLID_12_" class="st1" d="M72.8,156.1c0.3-0.3,0.7-0.6,0.9-0.9c0.1-0.1,0.2-0.2,0.2-0.2c0.4-0.4,0.8-0.8,1.2-1.2
		c0.1-0.2,0.2-0.2,0.3-0.4c0.2-0.2,0.5-0.5,0.7-0.7l8.8,9.9l-3.9,5.1L71.7,157c0.2-0.2,0.4-0.3,0.6-0.5
		C72.5,156.3,72.6,156.2,72.8,156.1z"/>
	<path id="XMLID_11_" class="st0" d="M97.4,159.2c0.5-0.4,1.1-0.8,1.6-1.2c0.2-0.2,0.4-0.2,0.5-0.4c0.7-0.6,1.4-1.1,2.2-1.7
		c0.2-0.2,0.5-0.4,0.7-0.6c0.5-0.4,1-0.8,1.5-1.2c0.3-0.2,0.6-0.5,0.9-0.7c0.4-0.4,0.8-0.7,1.2-1.1c0.3-0.2,0.7-0.6,0.9-0.9
		c0.4-0.4,0.8-0.7,1.2-1.1c0.3-0.3,0.6-0.6,0.9-0.9c0.4-0.4,0.8-0.7,1.2-1.1c0.4-0.3,0.6-0.6,1-1c0.3-0.3,0.6-0.6,0.9-0.9l2,21.8
		c0.1,1.5-0.4,3.8-1.1,5l-17.5,27.7c-0.3,0.4-0.6,0.6-0.8,0.6c-0.4,0-0.7-0.3-0.9-1L90,188.5c-0.4-1.4-0.5-3.8,0-5.3l5-16.1
		c0.5-1.6,0.7-4.2,0.5-5.9l-0.1-0.6c0.4-0.2,0.8-0.6,1.2-0.9C96.8,159.6,97.1,159.4,97.4,159.2z"/>
	<polygon id="XMLID_10_" class="st1" points="113.2,104.7 111.8,95.8 97.4,114.7 93.9,110.6 111.8,87.1 115,90.7 117.1,103.9 	"/>
	<polygon id="XMLID_9_" class="st0" points="155.7,34.6 146.1,87.4 113.2,50.6 	"/>
	<path id="XMLID_8_" class="st0" d="M45.5,97.7c0.9-1,2.7-1.9,4-1.8l18,0.6c-0.2,0.4-0.4,0.8-0.7,1.1c-0.2,0.4-0.5,0.8-0.7,1.3
		c-0.3,0.5-0.5,1-0.8,1.5c-0.2,0.4-0.4,0.8-0.6,1.2c-0.3,0.5-0.5,1-0.8,1.5c-0.2,0.4-0.4,0.8-0.6,1.2c-0.3,0.6-0.5,1.1-0.8,1.7
		c-0.1,0.4-0.4,0.7-0.5,1.1c-0.3,0.6-0.6,1.3-0.9,1.9c-0.2,0.3-0.3,0.6-0.4,0.9c-0.4,0.9-0.8,1.8-1.2,2.7c-0.1,0.2-0.2,0.4-0.3,0.6
		c-0.3,0.7-0.6,1.4-0.9,2.1c-0.2,0.3-0.2,0.7-0.4,1c-0.2,0.5-0.4,1-0.6,1.5l-0.5-0.1c-1.4-0.1-3.6,0.4-4.8,1.1l-13,7.4
		c-1.1,0.6-3.1,0.8-4.3,0.4l-10-3.6c-0.3-0.1-0.5-0.2-0.6-0.4s-0.2-0.4-0.3-0.6c0-0.3,0.2-0.7,0.5-1L45.5,97.7z"/>
	<path id="XMLID_7_" class="st2" d="M71.1,91.7c3.3-5.6,7-11.1,10.9-16.3c9.9-13.1,21-23.7,32-30.6l0.6,0.6l34.7,38.8l0.6,0.6
		c-4.7,13.8-12.5,28.1-22.5,41.2c-3.9,5.2-8.1,10-12.5,14.5c-5.7,5.9-11.6,10.8-17.4,14.7c-2.9,1.9-5.7,3.6-8.4,4.9l-1.9-2.1
		l-9.3-10.5c0.1-0.1,0.2-0.2,0.3-0.3c0.1-0.2,0.3-0.3,0.4-0.6c0.1-0.2,0.3-0.3,0.4-0.5c0.1-0.2,0.3-0.3,0.4-0.6
		c0.1-0.2,0.2-0.3,0.4-0.5c0.1-0.2,0.3-0.4,0.4-0.6c0.1-0.2,0.2-0.3,0.3-0.6c0.1-0.2,0.2-0.4,0.4-0.6c0.1-0.2,0.2-0.3,0.3-0.6
		c0.1-0.2,0.2-0.4,0.3-0.6c0.1-0.2,0.2-0.3,0.3-0.6c0.1-0.2,0.2-0.4,0.3-0.6c0.1-0.2,0.2-0.3,0.3-0.6c0.1-0.2,0.2-0.4,0.3-0.6
		c0.1-0.2,0.2-0.3,0.3-0.6c0.1-0.2,0.2-0.4,0.3-0.6c0.1-0.2,0.2-0.3,0.3-0.6c0.1-0.2,0.2-0.4,0.3-0.6c0.1-0.2,0.2-0.3,0.3-0.6
		c0.1-0.2,0.1-0.4,0.3-0.6c0.1-0.2,0.2-0.3,0.2-0.5c0.1-0.2,0.1-0.4,0.3-0.6c0-0.2,0.2-0.3,0.2-0.5c0.1-0.2,0.1-0.4,0.2-0.6
		c0-0.2,0.2-0.3,0.2-0.5c0-0.2,0.1-0.4,0.2-0.6c0-0.2,0.2-0.3,0.2-0.5c0-0.2,0.2-0.3,0.2-0.6c0-0.2,0.1-0.3,0.2-0.5
		c0-0.2,0.2-0.3,0.2-0.6c0-0.2,0.1-0.3,0.1-0.5c0-0.2,0.1-0.3,0.2-0.6c0-0.2,0.1-0.3,0.1-0.5c0-0.2,0.1-0.3,0.1-0.5
		c0-0.2,0.1-0.3,0.1-0.4c0-0.2,0.1-0.3,0.1-0.5c0-0.2,0.1-0.2,0.1-0.4s0.1-0.3,0.1-0.5c0-0.2,0.1-0.2,0.1-0.4c0-0.2,0.1-0.3,0.1-0.5
		s0-0.2,0.1-0.4c0-0.2,0.1-0.3,0.1-0.4c0.1-0.1,0-0.2,0.1-0.3c0-0.2,0.1-0.3,0.1-0.4c0.1-0.1,0-0.2,0.1-0.3c0-0.2,0-0.2,0.1-0.4
		c0.1-0.1,0-0.2,0.1-0.3c0.1-0.1,0-0.2,0.1-0.3c0-0.1,0-0.2,0-0.2c0.1-0.1,0-0.2,0.1-0.3c0-0.1,0-0.2,0-0.2s0-0.2,0-0.2s0-0.2,0-0.2
		c0-0.1,0-0.2,0-0.2c0-0.1,0-0.2,0-0.2c0-0.1,0-0.1,0-0.2c0-0.1,0-0.2,0-0.2l0-0.1c0-0.1,0-0.1,0-0.1c0-0.1,0-0.1,0.1-0.1
		c0-0.2,0-0.2,0-0.2l0.1-0.8l-0.6,0.3c-0.5,0.2-1,0.5-1.5,0.7c-0.2,0.1-0.3,0.2-0.5,0.2c-0.3,0.2-0.7,0.3-1,0.6
		c-0.2,0.1-0.4,0.2-0.6,0.3c-0.3,0.2-0.6,0.3-0.9,0.5c-0.2,0.1-0.4,0.2-0.6,0.3c-0.3,0.2-0.6,0.3-0.9,0.5c-0.2,0.2-0.4,0.2-0.5,0.4
		c-0.2,0.2-0.6,0.3-0.8,0.6c-0.2,0.2-0.4,0.2-0.5,0.4c-0.2,0.2-0.5,0.4-0.8,0.6c-0.2,0.2-0.4,0.3-0.5,0.4c-0.2,0.2-0.5,0.4-0.7,0.6
		c-0.2,0.2-0.4,0.3-0.5,0.5c-0.2,0.2-0.5,0.4-0.7,0.6c-0.2,0.2-0.4,0.3-0.5,0.5c-0.2,0.2-0.5,0.4-0.7,0.6c-0.2,0.2-0.4,0.3-0.5,0.5
		c-0.2,0.2-0.4,0.4-0.6,0.6c-0.2,0.2-0.4,0.3-0.5,0.5c-0.2,0.2-0.4,0.4-0.6,0.6c-0.2,0.2-0.4,0.3-0.5,0.6c-0.2,0.2-0.4,0.4-0.6,0.6
		c-0.2,0.2-0.3,0.4-0.5,0.6c-0.2,0.2-0.4,0.5-0.6,0.6c-0.2,0.2-0.3,0.4-0.5,0.6c-0.2,0.2-0.4,0.5-0.6,0.7c-0.2,0.2-0.3,0.4-0.5,0.6
		c-0.2,0.2-0.3,0.5-0.5,0.7c-0.2,0.2-0.3,0.4-0.4,0.6c-0.1,0.2-0.3,0.3-0.4,0.6L59,126.3l-1.9-2.1c0.8-3.4,2-6.9,3.3-10.5
		c0.3-1,0.7-1.8,1-2.8C64.1,104.8,67.3,98.2,71.1,91.7z M93.1,116.1c8.3,9.3,21.3,8.8,28.9-1.3c7.6-10,7-25.8-1.3-35.1
		S99.4,70.9,91.8,81C84.2,91,84.8,106.7,93.1,116.1z"/>
	<path id="XMLID_6_" class="st3" d="M117.5,85c8,9,8.6,24.2,1.2,33.9c-7.3,9.7-19.9,10.2-27.9,1.3c-8-9-8.6-24.2-1.2-33.9
		C97,76.5,109.5,76,117.5,85z M91.4,111.1l4.6,5.2l13.9-18.2l1.3,8l5.3-1.2l-2.3-14.3l-3.9-4.4L91.4,111.1L91.4,111.1z"/>
	<path id="XMLID_5_" class="st3" d="M117.9,104.6l-5.3,1.2l-1.3-8L97.5,116l-4.6-5.2l18.9-24.8l3.9,4.4L117.9,104.6z M111.8,87.1
		l-17.9,23.6l3.6,4l14.3-18.9l1.4,8.9l3.9-0.8L115,90.8L111.8,87.1L111.8,87.1z"/>
	<path id="XMLID_4_" class="st3" d="M119.5,83.9c8.3,9.3,8.9,25.1,1.3,35.1s-20.5,10.6-28.9,1.3S83,95.3,90.6,85.2
		S111.2,74.6,119.5,83.9z M92.4,119.7c8,9,20.5,8.4,27.9-1.3c7.3-9.7,6.8-24.9-1.2-33.9c-8-9-20.5-8.4-27.9,1.3
		C83.8,95.6,84.3,110.7,92.4,119.7z"/>
	<path id="XMLID_3_" class="st3" d="M25.2,120.2l21.2-23.5c1-1.1,3-2,4.5-2l18.5,0.6c3.3-5.6,6.9-11.1,10.8-16.2
		c10-13.3,21.3-24,32.4-30.9l0.2-0.2l1.3,1.4l44-16.5l-10,54.7l1.3,1.4l-0.1,0.2c-4.8,14-12.6,28.4-22.7,41.8
		c-3.9,5.1-8.1,10-12.4,14.5l2.1,22.4c0.1,1.8-0.4,4.2-1.3,5.6l-17.5,27.7c-0.4,0.6-0.9,1-1.3,1c-0.4,0-0.7-0.2-1-0.5
		c-0.2-0.2-0.4-0.6-0.6-1.1L91,188.8c-0.5-1.6-0.5-4.2,0-5.8l4.9-16.4c0.4-1.4,0.6-4,0.5-5.5l0-0.3c-2.8,1.9-5.6,3.5-8.2,4.8
		l-0.2,0.1l-2.2-2.5l-4.3,5.7l-10.1-11.3c-3.2,2.5-6.9,4.2-10.8,5l-0.5,0.1l0.1-0.6c0-0.2,0.7-5.6,4-12.6l-11.1-12.2l4.3-5.7
		l-2.2-2.5l0-0.2c0.9-3.3,2-6.7,3.2-10.3l-0.3,0c-1.3-0.1-3.3,0.3-4.5,1l-13,7.4c-1.3,0.7-3.4,0.9-4.8,0.4l-10-3.6
		c-0.4-0.2-0.7-0.3-0.9-0.6l0,0c-0.3-0.3-0.5-0.8-0.5-1.3C24.5,121.2,24.7,120.7,25.2,120.2z M157.2,34.2l-42.5,15.9L147.6,87
		L157.2,34.2z M96.9,160.9c0.2,1.7,0,4.3-0.5,5.9l-4.9,16.4c-0.4,1.4-0.4,3.8,0,5.3l3.7,11.9c0.2,0.6,0.5,1,0.9,1
		c0.3,0,0.6-0.2,0.8-0.6l17.5-27.7c0.8-1.2,1.3-3.4,1.1-5l-2-21.8c-0.3,0.3-0.6,0.6-0.9,0.9c-0.4,0.3-0.6,0.6-1,1
		c-0.4,0.4-0.8,0.7-1.2,1.1c-0.3,0.3-0.6,0.6-0.9,0.9c-0.4,0.4-0.8,0.7-1.2,1.1c-0.3,0.3-0.7,0.6-0.9,0.9c-0.4,0.4-0.8,0.7-1.2,1.1
		c-0.3,0.2-0.6,0.5-0.9,0.7c-0.5,0.4-1,0.8-1.5,1.2c-0.2,0.2-0.5,0.4-0.7,0.6c-0.7,0.6-1.4,1.1-2.2,1.7c-0.2,0.2-0.4,0.2-0.5,0.4
		c-0.5,0.4-1.1,0.8-1.6,1.2c-0.3,0.2-0.5,0.4-0.9,0.6c-0.4,0.3-0.8,0.6-1.2,0.9L96.9,160.9z M81.2,167.6l3.8-5.1l-8.8-9.9
		c-0.2,0.2-0.5,0.5-0.7,0.7c-0.1,0.2-0.2,0.2-0.3,0.4c-0.4,0.4-0.8,0.8-1.2,1.2c-0.1,0.1-0.2,0.2-0.2,0.2c-0.3,0.3-0.6,0.6-0.9,0.9
		c-0.1,0.2-0.3,0.2-0.4,0.4c-0.2,0.2-0.4,0.3-0.6,0.5L81.2,167.6L81.2,167.6z M64.7,149.5c-2.7,5.7-3.7,10.4-4,12
		c3.7-0.9,7.2-2.5,10.3-5c1.7-1.4,3.5-3,4.9-4.8c7.8-9.2,10.5-21.8,11.1-25c-1.9,1-3.8,2-5.5,3.2c-4.4,2.9-8.2,6.5-11.4,10.6
		c-0.6,0.8-1.2,1.7-1.9,2.6l0,0C67,145.2,65.7,147.3,64.7,149.5z M54.1,137.2l10.2,11.5c0.2-0.2,0.3-0.6,0.4-0.8
		c0.1-0.2,0.2-0.3,0.3-0.6c0.2-0.4,0.5-0.9,0.7-1.3c0.1-0.1,0.1-0.2,0.2-0.2c0.3-0.5,0.6-1,0.9-1.5c0.1-0.2,0.2-0.3,0.3-0.4
		c0.2-0.3,0.4-0.6,0.6-0.9l-9.6-10.8L54.1,137.2L54.1,137.2z M59.3,118.3c-1.3,3.6-2.5,7.2-3.3,10.5l1.9,2.1L68,142.2
		c0.1-0.2,0.3-0.3,0.4-0.6c0.2-0.2,0.3-0.4,0.4-0.6c0.2-0.2,0.3-0.5,0.5-0.7c0.2-0.2,0.3-0.4,0.5-0.6c0.2-0.2,0.3-0.5,0.6-0.7
		c0.2-0.2,0.3-0.4,0.5-0.6c0.2-0.2,0.4-0.5,0.6-0.6c0.2-0.2,0.3-0.4,0.5-0.6c0.2-0.2,0.4-0.4,0.6-0.6c0.2-0.2,0.4-0.3,0.5-0.6
		c0.2-0.2,0.4-0.4,0.6-0.6c0.2-0.2,0.4-0.3,0.5-0.5c0.2-0.2,0.4-0.4,0.6-0.6c0.2-0.2,0.4-0.3,0.5-0.5c0.2-0.2,0.5-0.4,0.7-0.6
		c0.2-0.2,0.4-0.3,0.5-0.5c0.2-0.2,0.5-0.4,0.7-0.6c0.2-0.2,0.4-0.3,0.5-0.5c0.2-0.2,0.5-0.4,0.7-0.6c0.2-0.2,0.4-0.3,0.5-0.4
		c0.2-0.2,0.5-0.4,0.8-0.6c0.2-0.2,0.4-0.2,0.5-0.4c0.2-0.2,0.6-0.3,0.8-0.6c0.2-0.2,0.4-0.2,0.5-0.4c0.2-0.2,0.6-0.3,0.9-0.5
		c0.2-0.1,0.4-0.2,0.6-0.3c0.3-0.2,0.6-0.3,0.9-0.5c0.2-0.1,0.4-0.2,0.6-0.3c0.3-0.2,0.7-0.3,1-0.6c0.2-0.1,0.3-0.2,0.5-0.2
		c0.5-0.2,1-0.5,1.5-0.7l0.6-0.3l-0.1,0.8c0,0,0,0.1,0,0.2c0,0,0,0.1-0.1,0.1l0,0.1l0,0.1c0,0.1,0,0.2,0,0.2c0,0.1,0,0.1,0,0.2
		c0,0.1,0,0.2,0,0.2c0,0.1,0,0.2,0,0.2c0,0.1,0,0.2,0,0.2c0,0.1,0,0.2,0,0.2c0,0.1,0,0.2,0,0.2s0,0.2-0.1,0.3c0,0.1,0,0.2,0,0.2
		c-0.1,0.1,0,0.2-0.1,0.3c-0.1,0.1,0,0.2-0.1,0.3c0,0.2,0,0.2-0.1,0.4c-0.1,0.1,0,0.2-0.1,0.3c0,0.2-0.1,0.2-0.1,0.4
		c-0.1,0.1,0,0.2-0.1,0.3c0,0.2-0.1,0.3-0.1,0.4c0,0.2,0,0.2-0.1,0.4c0,0.2-0.1,0.3-0.1,0.5c0,0.2-0.1,0.2-0.1,0.4
		c0,0.2-0.1,0.3-0.1,0.5c0,0.2-0.1,0.2-0.1,0.4s-0.1,0.3-0.1,0.5c0,0.2-0.1,0.3-0.1,0.4c0,0.2-0.1,0.3-0.1,0.5
		c0,0.2-0.1,0.3-0.1,0.5c0,0.2-0.1,0.3-0.2,0.6c0,0.2-0.1,0.3-0.1,0.5c0,0.2-0.2,0.3-0.2,0.6c0,0.2-0.1,0.3-0.2,0.5
		c0,0.2-0.2,0.3-0.2,0.6c0,0.2-0.1,0.3-0.2,0.5c0,0.2-0.1,0.4-0.2,0.6c0,0.2-0.2,0.3-0.2,0.5c0,0.2-0.1,0.4-0.2,0.6
		c0,0.2-0.2,0.3-0.2,0.5c-0.1,0.2-0.1,0.4-0.3,0.6c0,0.2-0.2,0.3-0.2,0.5c-0.1,0.2-0.1,0.4-0.3,0.6c-0.1,0.2-0.2,0.3-0.3,0.6
		c-0.1,0.2-0.1,0.4-0.3,0.6c-0.1,0.2-0.2,0.3-0.3,0.6c-0.1,0.2-0.2,0.4-0.3,0.6c-0.1,0.2-0.2,0.3-0.3,0.6c-0.1,0.2-0.2,0.4-0.3,0.6
		c-0.1,0.2-0.2,0.3-0.3,0.6c-0.1,0.2-0.2,0.4-0.3,0.6c-0.1,0.2-0.2,0.3-0.3,0.6c-0.1,0.2-0.2,0.4-0.3,0.6c-0.1,0.2-0.2,0.3-0.3,0.6
		c-0.1,0.2-0.2,0.4-0.4,0.6c-0.1,0.2-0.2,0.3-0.3,0.6c-0.1,0.2-0.2,0.4-0.4,0.6c-0.1,0.2-0.2,0.3-0.4,0.5c-0.1,0.2-0.3,0.3-0.4,0.6
		c-0.1,0.2-0.3,0.3-0.4,0.5c-0.1,0.2-0.3,0.3-0.4,0.6c-0.1,0.1-0.2,0.2-0.3,0.3l9.3,10.5l1.9,2.1c2.7-1.3,5.5-2.9,8.4-4.9
		c5.8-3.9,11.7-8.9,17.4-14.7c4.3-4.4,8.5-9.3,12.5-14.5c9.9-13.1,17.7-27.4,22.5-41.2l-0.6-0.6L113.4,50l-0.6-0.6
		c-10.9,6.9-22,17.4-32,30.6c-3.9,5.2-7.6,10.7-10.9,16.3c-3.8,6.5-7,13.1-9.6,19.5C60,116.4,59.6,117.4,59.3,118.3z M25.2,121.8
		c0,0.2,0,0.4,0.3,0.6c0.2,0.2,0.4,0.3,0.6,0.4l10,3.6c1.2,0.4,3.2,0.2,4.3-0.4l13-7.4c1.2-0.7,3.4-1.2,4.8-1.1l0.5,0.1
		c0.2-0.5,0.4-1,0.6-1.5c0.2-0.3,0.2-0.7,0.4-1c0.2-0.7,0.6-1.4,0.9-2.1c0.1-0.2,0.2-0.4,0.3-0.6c0.4-0.9,0.8-1.8,1.2-2.7
		c0.2-0.3,0.3-0.6,0.4-0.9c0.3-0.6,0.6-1.3,0.9-1.9c0.1-0.4,0.4-0.7,0.5-1.1c0.3-0.6,0.5-1.1,0.8-1.7c0.2-0.4,0.4-0.8,0.6-1.2
		c0.3-0.5,0.5-1,0.8-1.5c0.2-0.4,0.4-0.8,0.6-1.2c0.3-0.5,0.5-1,0.8-1.5c0.2-0.4,0.5-0.8,0.7-1.3c0.2-0.4,0.4-0.8,0.7-1.1l-18-0.6
		c-1.3-0.1-3.1,0.7-4,1.8l-21.2,23.5C25.3,121.1,25.2,121.5,25.2,121.8z"/>
</g>
</svg>
