<?xml version="1.0" encoding="utf-8"?>
<!-- Generator: Adobe Illustrator 19.0.0, SVG Export Plug-In . SVG Version: 6.00 Build 0)  -->
<svg version="1.1" id="Layer_1" xmlns="http://www.w3.org/2000/svg" xmlns:xlink="http://www.w3.org/1999/xlink" x="0px" y="0px"
	 viewBox="280 -255 960 560" style="enable-background:new 280 -255 960 560;" xml:space="preserve">
<style type="text/css">
	.st0{opacity:0.54;fill:none;stroke:#000000;stroke-width:3;stroke-miterlimit:10;enable-background:new    ;}
	.st1{opacity:0.54;fill:#FFFFFF;stroke:#000000;stroke-width:2;stroke-miterlimit:10;enable-background:new    ;}
	.st2{opacity:0.54;fill:none;stroke:#000000;stroke-width:2;stroke-miterlimit:10;enable-background:new    ;}
	.st3{fill:none;}
</style>
<rect x="905.2" y="172.3" class="st0" width="21.2" height="60.1"/>
<path id="XMLID_84_" class="st1" d="M575.9,77.7l-191.7-0.6l-0.4,109.5l191.7,0.6L575.9,77.7z M572.5,184l-185.9-0.6L387,80.2
	l185.9,0.6L572.5,184L572.5,184z"/>
<rect x="510.3" y="143.5" class="st2" width="24.5" height="1.2"/>
<rect x="-26.6" y="-2007.7" class="st3" width="2433.8" height="2468.9"/>
<path id="XMLID_15_" class="st1" d="M690.4,28.2l-191.7-0.6l-0.4,109.5l191.7,0.6L690.4,28.2z M687.1,134.5l-185.9-0.6l0.4-103.2
	l185.9,0.6L687.1,134.5L687.1,134.5z"/>
<path id="XMLID_2_" class="st1" d="M798.5-23.8l-191.7-0.6l-0.4,109.5l191.7,0.6L798.5-23.8z M795.1,82.5l-185.9-0.6l0.4-103.2
	l185.9,0.6L795.1,82.5L795.1,82.5z"/>
<path id="XMLID_3_" class="st1" d="M894.5-101.6l-191.7-0.6L702.4,7.3l191.7,0.6L894.5-101.6z M891.2,4.7L705.3,4.1l0.4-103.2
	l185.9,0.6L891.2,4.7L891.2,4.7z"/>
<path id="XMLID_4_" class="st1" d="M742.4-198l-207.3-0.8l-0.4,145.1L742-52.9L742.4-198z M738.8-57.2l-201-0.8l0.4-136.7l201,0.8
	L738.8-57.2L738.8-57.2z"/>
<path id="XMLID_5_" class="st1" d="M594.4-125.4L402.7-126l-0.4,109.5L594-15.9L594.4-125.4z M591-19l-185.9-0.6l0.4-103.2
	l185.9,0.6L591-19L591-19z"/>
<path id="XMLID_6_" class="st1" d="M975.9-166.8l-191.7-0.6l-0.4,109.5l191.7,0.6L975.9-166.8z M972.6-60.4L786.7-61l0.3-103.2
	l186,0.6L972.6-60.4L972.6-60.4z"/>
<path id="XMLID_7_" class="st1" d="M505-170l-191.7-0.6L312.9-61l191.7,0.6L505-170z M501.7-63.7l-185.9-0.6l0.4-103.2l185.9,0.6
	L501.7-63.7L501.7-63.7z"/>
<path id="XMLID_8_" class="st1" d="M484.9-46.5l-191.7-0.6l-0.4,109.5L484.5,63L484.9-46.5z M481.6,59.8l-185.9-0.6L296.1-44
	L482-43.4L481.6,59.8L481.6,59.8z"/>
<path id="XMLID_9_" class="st1" d="M948.4-235.5l-191.7-0.6l-0.4,109.5L948-126L948.4-235.5z M945.1-129.2l-185.9-0.6l0.3-103.2
	l185.9,0.6L945.1-129.2L945.1-129.2z"/>
<path id="XMLID_10_" class="st1" d="M739.2,114.1l-112.6-0.6L626.4,223l112.6,0.6L739.2,114.1z M737.3,220.4l-109.2-0.6l0.2-103.2
	l109.2,0.6L737.3,220.4L737.3,220.4z"/>
<path id="XMLID_11_" class="st1" d="M869.7,31.2l-113.2-0.5l-0.2,85.7l113.2,0.5L869.7,31.2z M867.7,114.4l-109.8-0.5l0.2-80.8
	l109.8,0.5L867.7,114.4L867.7,114.4z"/>
<path id="XMLID_12_" class="st1" d="M618.6-244.8l-191.7-0.6l-0.4,100.8l191.7,0.6L618.6-244.8z M615.2-147l-185.9-0.6l0.4-94.9
	l185.9,0.6L615.2-147L615.2-147z"/>
<path id="XMLID_13_" class="st1" d="M522.5-210.4L330.8-211l-0.4,109.5l191.7,0.6L522.5-210.4z M519.2-104.1l-185.9-0.6l0.4-103.2
	l185.9,0.6L519.2-104.1L519.2-104.1z"/>
<path id="XMLID_1_" class="st1" d="M1118.5-107.4L926.8-108L926.4,1.5l191.7,0.6L1118.5-107.4z M1115.2-1.1L929.3-1.7l0.4-103.2
	l185.9,0.6L1115.2-1.1L1115.2-1.1z"/>
<path id="XMLID_14_" class="st1" d="M1032.5-30.8l-191.7-0.6l-0.4,109.5l191.7,0.6L1032.5-30.8z M1029.1,75.5l-185.9-0.6l0.4-103.2
	l185.9,0.6L1029.1,75.5L1029.1,75.5z"/>
<path id="XMLID_16_" class="st1" d="M1125.5,48.5l-191.7-0.6l-0.4,109.5l191.7,0.6L1125.5,48.5z M1122.2,154.8l-185.9-0.6L936.7,51
	l185.9,0.6L1122.2,154.8L1122.2,154.8z"/>
<path id="XMLID_17_" class="st1" d="M835.3-183.7l-191.7-0.6l-0.4,109.5l191.7,0.6L835.3-183.7z M831.9-77.3L646-77.9l0.4-103.2
	l185.9,0.6L831.9-77.3L831.9-77.3z"/>
<path id="XMLID_18_" class="st1" d="M1179.5-183.7l-191.7-0.6l-0.4,109.5l191.7,0.6L1179.5-183.7z M1176.1-77.4L990.2-78l0.4-103.2
	l185.9,0.6L1176.1-77.4L1176.1-77.4z"/>
<path id="XMLID_19_" class="st1" d="M1086.3-249.2l-191.7-0.6l-0.4,109.5l191.7,0.6L1086.3-249.2z M1082.9-142.9L897-143.5
	l0.4-103.2l185.9,0.6L1082.9-142.9L1082.9-142.9z"/>
<path id="XMLID_20_" class="st1" d="M1001.3,124.5l-191.7-0.6l-0.4,109.5l191.7,0.6L1001.3,124.5z M997.9,230.8L812,230.2l0.4-103.2
	l185.9,0.6L997.9,230.8L997.9,230.8z"/>
<path id="XMLID_21_" class="st1" d="M883.5,172.2l-191.7-0.6l-0.4,109.5l191.7,0.6L883.5,172.2z M880.1,278.5l-185.9-0.6l0.4-103.2
	l185.9,0.6L880.1,278.5L880.1,278.5z"/>
<path id="XMLID_22_" class="st1" d="M660.5,165.3l-191.7-0.6l-0.4,109.5l191.7,0.6L660.5,165.3z M657.1,271.6L471.2,271l0.4-103.2
	l185.9,0.6L657.1,271.6L657.1,271.6z"/>
<path id="XMLID_23_" class="st1" d="M1140.5,184.6L948.8,184l-0.4,109.5l191.7,0.6L1140.5,184.6z M1137.1,290.9l-185.9-0.6
	l0.4-103.2l185.9,0.6L1137.1,290.9L1137.1,290.9z"/>
<path id="XMLID_24_" class="st1" d="M455.3,135.1l-191.7-0.6L263.3,244l191.7,0.6L455.3,135.1z M452,241.4l-185.9-0.6l0.4-103.2
	l185.9,0.6L452,241.4L452,241.4z"/>
<path id="XMLID_25_" class="st1" d="M520.2,195.5l-191.7-0.6l-0.4,109.5l191.7,0.6L520.2,195.5z M516.8,301.8l-185.9-0.6l0.4-103.2
	l185.9,0.6L516.8,301.8L516.8,301.8z"/>
<path id="XMLID_26_" class="st1" d="M1240-30.8l-191.7-0.6l-0.4,109.5l191.7,0.6L1240-30.8z M1236.7,75.5l-185.9-0.6l0.4-103.2
	l185.9,0.6L1236.7,75.5L1236.7,75.5z"/>
<path id="XMLID_27_" class="st1" d="M1221.6,117.2l-191.7-0.6l-0.4,109.5l191.7,0.6L1221.6,117.2z M1218.2,223.5l-185.9-0.6
	l0.4-103.2l185.9,0.6L1218.2,223.5L1218.2,223.5z"/>
<path id="XMLID_28_" class="st1" d="M1266.4-98.5l-191.7-0.6l-0.4,109.5L1266,11L1266.4-98.5z M1263.1,7.9l-185.9-0.6l0.4-103.2
	l185.9,0.6L1263.1,7.9L1263.1,7.9z"/>
<path id="XMLID_29_" class="st1" d="M1266.4,25.7l-191.7-0.6l-0.4,109.5l191.7,0.6L1266.4,25.7z M1263.1,132l-185.9-0.6l0.4-103.2
	l185.9,0.6L1263.1,132L1263.1,132z"/>
<path id="XMLID_30_" class="st1" d="M1275.5,169l-191.7-0.6l-0.4,109.5l191.7,0.6L1275.5,169z M1272.2,275.3l-185.9-0.6l0.4-103.2
	l185.9,0.6L1272.2,275.3L1272.2,275.3z"/>
<path id="XMLID_31_" class="st1" d="M1221.6-235.7l-191.7-0.6l-0.4,109.5l191.7,0.6L1221.6-235.7z M1218.2-129.4l-185.9-0.6
	l0.4-103.2l185.9,0.6L1218.2-129.4L1218.2-129.4z"/>
<path id="XMLID_32_" class="st1" d="M861.9-273.8l-191.7-0.6l-0.4,109.5l191.7,0.6L861.9-273.8z M858.5-167.5l-185.9-0.6l0.4-103.2
	l185.9,0.6L858.5-167.5L858.5-167.5z"/>
</svg>
